<?xml version="1.0" standalone="no"?>
<!DOCTYPE svg PUBLIC "-//W3C//DTD SVG 1.1//EN"
 "http://www.w3.org/Graphics/SVG/1.1/DTD/svg11.dtd">
<!-- Created with svg_stack (http://github.com/astraw/svg_stack) -->
<svg xmlns:ev="http://www.w3.org/2001/xml-events" xmlns:sodipodi="http://sodipodi.sourceforge.net/DTD/sodipodi-0.dtd" xmlns:xlink="http://www.w3.org/1999/xlink" xmlns="http://www.w3.org/2000/svg" version="1.1" width="20810.599000000002" height="1838.0">
  <defs/>
  <g id="id0:id0" transform="matrix(1.0,0,0,1.0,0.0,326.5)">
    <path d="M 0.0,1185.0  L 400.0,1185.0  L 400.0,0.0  L 0.0,0.0  L 0.0,1185.0" fill="none" stroke="rgb(100, 0, 18)" stroke-width="0.2"/>
    <path d="M 400.0,1167.0  L 252.0,1167.0  A 4.1,4.1 0 0 0 252.0 1175.2  L 252.0,1178.0  L 154.0,1178.0  L 154.0,1175.2  A 4.1,4.1 0 0 0 154.0 1167.0  L 6.0,1167.0  L 6.0,677.143  L 9.800000000000011,677.143  A 4.1,4.1 0 0 0 18.0 677.143  L 18.0,507.85699999999997  A 4.1,4.1 0 0 0 9.800000000000011 507.85699999999997  L 6.0,507.85699999999997  L 6.0,18.0  L 154.0,18.0  A 4.1,4.1 0 0 0 154.0 9.799999999999955  L 154.0,7.0  L 252.0,7.0  L 252.0,9.799999999999955  A 4.1,4.1 0 0 0 252.0 18.0  L 400.0,18.0  L 400.0,1167.0" fill="none" stroke="rgb(0, 100, 0)" stroke-width="0.2"/>
    <path d="M 142.333,793.0  A 4.1,4.1 0 0 0 142.333 784.8  L 142.333,783.2  A 4.1,4.1 0 0 0 142.333 775.0  L 75.667,775.0  A 4.1,4.1 0 0 0 75.667 783.2  L 75.667,784.8  A 4.1,4.1 0 0 0 75.667 793.0  L 142.333,793.0" fill="none" stroke="rgb(0, 100, 0)" stroke-width="0.2"/>
    <path d="M 142.333,392.0  L 75.667,392.0  A 4.1,4.1 0 0 0 75.667 400.2  L 75.667,401.8  A 4.1,4.1 0 0 0 75.667 410.0  L 142.333,410.0  A 4.1,4.1 0 0 0 142.333 401.8  L 142.333,400.2  A 4.1,4.1 0 0 0 142.333 392.0" fill="none" stroke="rgb(0, 100, 0)" stroke-width="0.2"/>
  </g>
  <g id="id1:id1" transform="matrix(1.0,0,0,1.0,500.0,319.0)">
    <path d="M 2400.0,0.0  L 1200.0,0.0  L 0.0,0.0  L 0.0,1200.0  L 1200.0,1200.0  L 2400.0,1200.0  L 2400.0,0.0" fill="none" stroke="rgb(100, 0, 18)" stroke-width="0.2"/>
    <path d="M 818.5,524.5  A 22.0,22.0 0 0 1 840.5 546.5  L 840.5,653.5  A 22.0,22.0 0 0 1 818.5 675.5  L 381.5,675.5  A 22.0,22.0 0 0 1 359.5 653.5  L 359.5,546.5  A 22.0,22.0 0 0 1 381.5 524.5  L 818.5,524.5" fill="none" stroke="rgb(100, 0, 18)" stroke-width="0.2"/>
    <path d="M 2018.5,524.5  A 22.0,22.0 0 0 1 2040.5 546.5  L 2040.5,653.5  A 22.0,22.0 0 0 1 2018.5 675.5  L 1581.5,675.5  A 22.0,22.0 0 0 1 1559.5 653.5  L 1559.5,546.5  A 22.0,22.0 0 0 1 1581.5 524.5  L 2018.5,524.5" fill="none" stroke="rgb(100, 0, 18)" stroke-width="0.2"/>
    <path d="M 135.25,160.5  A 4.1,4.1 0 0 0 135.25 152.3  L 135.25,117.69999999999999  A 4.1,4.1 0 0 0 135.25 109.5  L 99.75,109.5  A 4.1,4.1 0 0 0 99.75 117.69999999999999  L 99.75,152.3  A 4.1,4.1 0 0 0 99.75 160.5  L 135.25,160.5" fill="none" stroke="rgb(0, 100, 0)" stroke-width="0.2"/>
    <path d="M 99.75,1047.7  L 99.75,1082.3  A 4.1,4.1 0 0 0 99.75 1090.5  L 135.25,1090.5  A 4.1,4.1 0 0 0 135.25 1082.3  L 135.25,1047.7  A 4.1,4.1 0 0 0 135.25 1039.5  L 99.75,1039.5  A 4.1,4.1 0 0 0 99.75 1047.7" fill="none" stroke="rgb(0, 100, 0)" stroke-width="0.2"/>
    <path d="M 2283.25,1090.5  A 4.1,4.1 0 0 0 2283.25 1082.3  L 2283.25,1047.7  A 4.1,4.1 0 0 0 2283.25 1039.5  L 2264.75,1039.5  A 4.1,4.1 0 0 0 2264.75 1047.7  L 2264.75,1082.3  A 4.1,4.1 0 0 0 2264.75 1090.5  L 2283.25,1090.5" fill="none" stroke="rgb(0, 100, 0)" stroke-width="0.2"/>
    <path d="M 2264.75,117.69999999999999  L 2264.75,152.3  A 4.1,4.1 0 0 0 2264.75 160.5  L 2283.25,160.5  A 4.1,4.1 0 0 0 2283.25 152.3  L 2283.25,117.69999999999999  A 4.1,4.1 0 0 0 2283.25 109.5  L 2264.75,109.5  A 4.1,4.1 0 0 0 2264.75 117.69999999999999" fill="none" stroke="rgb(0, 100, 0)" stroke-width="0.2"/>
  </g>
  <g id="id2:id2" transform="matrix(1.0,0,0,1.0,3000.0,507.51)">
    <path d="M 424.199,103.75800000000004  A 5.0,5.0 0 0 0 419.46 97.16200000000003  L 328.147,97.16200000000003  L 42.857,692.182  L 59.047,705.8480000000001  A 10.0,10.0 0 0 1 62.497 712.0840000000001  L 75.075,800.6800000000001  A 30.997,30.997 0 0 0 121.584 822.98  L 160.224,800.048  A 10.0,10.0 0 0 1 171.778 801.0060000000001  L 185.446,812.543  L 424.199,103.75800000000004" fill="none" stroke="rgb(100, 0, 18)" stroke-width="0.2"/>
    <path d="M 357.743,208.85500000000002  L 339.962,256.12100000000004  A 4.1,4.1 0 0 1 332.287 253.23300000000006  L 314.41,246.50800000000004  A 4.1,4.1 0 0 1 306.736 243.62100000000004  L 324.517,196.35500000000002  A 4.1,4.1 0 0 1 332.192 199.24200000000008  L 350.068,205.96699999999998  A 4.1,4.1 0 0 1 357.743 208.85500000000002" fill="none" stroke="rgb(0, 100, 18)" stroke-width="0.2"/>
  </g>
  <g id="id3:id3" transform="matrix(1.0,0,0,1.0,3524.199,869.0)">
    <path d="M 494.0,100.0  L 614.5,100.0  L 614.5,90.2  A 4.1,4.1 0 0 1 614.5 82.0  L 735.0,82.0  A 4.1,4.1 0 0 1 735.0 90.2  L 735.0,100.0  L 855.5,100.0  L 855.5,90.2  A 4.1,4.1 0 0 1 855.5 82.0  L 976.0,82.0  L 988.0,82.0  L 988.0,25.0  L 981.798,25.0  A 4.1,4.1 0 0 1 976.0 19.202  L 976.0,0.0  L 12.0,0.0  L 12.0,19.202  A 4.1,4.1 0 0 1 6.201999999999998 25.0  L 0.0,25.0  L 0.0,100.0  L 132.5,100.0  L 132.5,90.2  A 4.1,4.1 0 0 1 132.5 82.0  L 253.0,82.0  A 4.1,4.1 0 0 1 253.0 90.2  L 253.0,100.0  L 373.5,100.0  L 373.5,90.2  A 4.1,4.1 0 0 1 373.5 82.0  L 494.0,82.0  A 4.1,4.1 0 0 1 494.0 90.2  L 494.0,100.0" fill="none" stroke="rgb(100, 0, 18)" stroke-width="0.2"/>
  </g>
  <g id="id4:id4" transform="matrix(1.0,0,0,1.0,4612.1990000000005,844.0)">
    <path d="M 480.0,30.0  L 480.0,22.0  A 22.0,22.0 0 0 0 458.0 0.0  L 240.0,0.0  L 22.0,0.0  A 22.0,22.0 0 0 0 0.0 22.0  L 0.0,30.0  L 15.900000000000006,30.0  A 4.1,4.1 0 0 1 20.0 34.1  L 20.0,115.9  A 4.1,4.1 0 0 1 15.900000000000006 120.0  L 0.0,120.0  L 0.0,128.0  A 22.0,22.0 0 0 0 22.0 150.0  L 240.0,150.0  L 458.0,150.0  A 22.0,22.0 0 0 0 480.0 128.0  L 480.0,120.0  L 464.1,120.0  A 4.1,4.1 0 0 1 460.0 115.9  L 460.0,34.1  A 4.1,4.1 0 0 1 464.1 30.0  L 480.0,30.0" fill="none" stroke="rgb(100, 0, 18)" stroke-width="0.2"/>
    <path d="M 220.0,24.75  A 6.0,6.0 0 0 1 220.0 12.75  L 260.0,12.75  A 6.0,6.0 0 0 1 260.0 24.75  L 220.0,24.75" fill="none" stroke="rgb(0, 100, 18)" stroke-width="0.2"/>
    <path d="M 260.0,137.25  L 220.0,137.25  A 6.0,6.0 0 0 0 220.0 125.25  L 260.0,125.25  A 6.0,6.0 0 0 1 260.0 137.25" fill="none" stroke="rgb(0, 100, 18)" stroke-width="0.2"/>
    <path d="M 100.0,12.75  L 140.0,12.75  A 6.0,6.0 0 0 1 140.0 24.75  L 100.0,24.75  A 6.0,6.0 0 0 1 100.0 12.75" fill="none" stroke="rgb(0, 100, 18)" stroke-width="0.2"/>
    <path d="M 100.0,137.25  A 6.0,6.0 0 0 1 100.0 125.25  L 140.0,125.25  A 6.0,6.0 0 0 1 140.0 137.25  L 100.0,137.25" fill="none" stroke="rgb(0, 100, 18)" stroke-width="0.2"/>
    <path d="M 340.0,12.75  L 380.0,12.75  A 6.0,6.0 0 0 1 380.0 24.75  L 340.0,24.75  A 6.0,6.0 0 0 1 340.0 12.75" fill="none" stroke="rgb(0, 100, 18)" stroke-width="0.2"/>
    <path d="M 340.0,137.25  A 6.0,6.0 0 0 1 340.0 125.25  L 380.0,125.25  A 6.0,6.0 0 0 1 380.0 137.25  L 340.0,137.25" fill="none" stroke="rgb(0, 100, 18)" stroke-width="0.2"/>
    <path d="M 420.0,137.25  A 6.0,6.0 0 0 0 420.0 125.25  L 60.0,125.25  A 6.0,6.0 0 0 0 60.0 137.25  L 420.0,137.25" fill="none" stroke="rgb(0, 100, 0)" stroke-width="0.2"/>
    <path d="M 60.0,24.75  L 420.0,24.75  A 6.0,6.0 0 0 0 420.0 12.75  L 60.0,12.75  A 6.0,6.0 0 0 0 60.0 24.75" fill="none" stroke="rgb(0, 100, 0)" stroke-width="0.2"/>
    <path d="M 420.0,112.5  A 6.0,6.0 0 0 0 426.0 106.5  L 426.0,43.5  A 6.0,6.0 0 0 0 420.0 37.5  L 60.0,37.5  A 6.0,6.0 0 0 0 54.0 43.5  L 54.0,106.5  A 6.0,6.0 0 0 0 60.0 112.5  L 420.0,112.5" fill="none" stroke="rgb(0, 100, 0)" stroke-width="0.2"/>
  </g>
  <g id="id5:id5" transform="matrix(1.0,0,0,1.0,5192.1990000000005,823.0)">
    <path d="M 383.75,192.0  L 383.75,106.798  A 4.1,4.1 0 0 1 389.548 101.0  L 396.452,101.0  A 4.1,4.1 0 0 1 402.25 106.798  L 402.25,192.0  L 766.75,192.0  L 766.75,106.798  A 4.1,4.1 0 0 1 772.548 101.0  L 779.452,101.0  A 4.1,4.1 0 0 1 785.25 106.798  L 785.25,192.0  L 1159.0,192.0  L 1159.0,140.132  A 4.1,4.1 0 0 1 1164.798 134.333  L 1165.536,134.333  L 1169.0,132.333  L 1169.0,69.667  L 1165.536,67.667  L 1164.798,67.667  A 4.1,4.1 0 0 1 1159.0 61.868  L 1159.0,10.0  L 906.798,10.0  A 4.1,4.1 0 0 1 901.0 4.201999999999998  L 901.0,3.4639999999999986  L 899.0,0.0  L 692.0,0.0  L 690.0,3.4639999999999986  L 690.0,4.201999999999998  A 4.1,4.1 0 0 1 684.202 10.0  L 484.798,10.0  A 4.1,4.1 0 0 1 479.0 4.201999999999998  L 479.0,3.4639999999999986  L 477.0,0.0  L 270.0,0.0  L 268.0,3.4639999999999986  L 268.0,4.201999999999998  A 4.1,4.1 0 0 1 262.202 10.0  L 10.0,10.0  L 10.0,61.868  A 4.1,4.1 0 0 1 4.201999999999998 67.667  L 3.4640000000000555,67.667  L 0.0,69.667  L 0.0,132.333  L 3.4640000000000555,134.333  L 4.201999999999998,134.333  A 4.1,4.1 0 0 1 10.0 140.132  L 10.0,192.0  L 383.75,192.0" fill="none" stroke="rgb(100, 0, 18)" stroke-width="0.2"/>
  </g>
  <g id="id6:id6" transform="matrix(1.0,0,0,1.0,6461.1990000000005,719.0)">
    <path d="M 1179.0,400.0  L 1179.0,0.0  L 0.0,0.0  L 0.0,400.0  L 1179.0,400.0" fill="none" stroke="rgb(100, 0, 18)" stroke-width="0.2"/>
    <path d="M 18.5,400.0  L 18.5,6.0  L 503.85699999999997,6.0  L 503.85699999999997,12.201999999999998  A 4.1,4.1 0 0 0 509.655 18.0  L 669.345,18.0  A 4.1,4.1 0 0 0 675.143 12.201999999999998  L 675.143,6.0  L 1179.0,6.0  L 18.5,400.0" fill="none" stroke="rgb(0, 100, 0)" stroke-width="0.2"/>
    <path d="M 783.117,273.16700000000003  L 785.217,273.16700000000003  A 4.1,4.1 0 0 1 793.417 273.16700000000003  L 793.417,144.833  A 4.1,4.1 0 0 0 785.217 144.833  L 783.117,144.833  A 4.1,4.1 0 0 0 774.917 144.833  L 774.917,273.16700000000003  A 4.1,4.1 0 0 0 783.117 273.16700000000003" fill="none" stroke="rgb(0, 100, 0)" stroke-width="0.2"/>
    <path d="M 410.58299999999997,144.833  A 4.1,4.1 0 0 0 402.38300000000004 144.833  L 400.283,144.833  A 4.1,4.1 0 0 0 392.08299999999997 144.833  L 392.08299999999997,273.16700000000003  A 4.1,4.1 0 0 0 400.283 273.16700000000003  L 402.38300000000004,273.16700000000003  A 4.1,4.1 0 0 0 410.58299999999997 273.16700000000003  L 410.58299999999997,144.833" fill="none" stroke="rgb(0, 100, 0)" stroke-width="0.2"/>
    <path d="M 1179.0,153.0  L 1175.2,153.0  A 4.1,4.1 0 0 0 1167.0 153.0  L 1167.0,253.0  A 4.1,4.1 0 0 0 1175.2 253.0  L 1179.0,253.0  L 1179.0,153.0" fill="none" stroke="rgb(0, 100, 0)" stroke-width="0.2"/>
  </g>
  <g id="id7:id7" transform="matrix(1.0,0,0,1.0,7740.1990000000005,719.0)">
    <path d="M 1179.0,0.0  L 0.0,0.0  L 0.0,400.0  L 1179.0,400.0  L 1179.0,0.0" fill="none" stroke="rgb(100, 0, 18)" stroke-width="0.2"/>
    <path d="M 1179.0,147.0  L 1175.2,147.0  A 4.1,4.1 0 0 0 1167.0 147.0  L 1167.0,247.0  A 4.1,4.1 0 0 0 1175.2 247.0  L 1179.0,247.0  L 1179.0,147.0" fill="none" stroke="rgb(0, 100, 0)" stroke-width="0.2"/>
    <path d="M 783.117,126.833  A 4.1,4.1 0 0 0 774.917 126.833  L 774.917,255.167  A 4.1,4.1 0 0 0 783.117 255.167  L 785.217,255.167  A 4.1,4.1 0 0 0 793.417 255.167  L 793.417,126.833  A 4.1,4.1 0 0 0 785.217 126.833  L 783.117,126.833" fill="none" stroke="rgb(0, 100, 0)" stroke-width="0.2"/>
    <path d="M 410.58299999999997,255.167  L 410.58299999999997,126.833  A 4.1,4.1 0 0 0 402.38300000000004 126.833  L 400.283,126.833  A 4.1,4.1 0 0 0 392.08299999999997 126.833  L 392.08299999999997,255.167  A 4.1,4.1 0 0 0 400.283 255.167  L 402.38300000000004,255.167  A 4.1,4.1 0 0 0 410.58299999999997 255.167" fill="none" stroke="rgb(0, 100, 0)" stroke-width="0.2"/>
    <path d="M 1179.0,394.0  L 675.143,394.0  L 675.143,387.798  A 4.1,4.1 0 0 0 669.345 382.0  L 509.655,382.0  A 4.1,4.1 0 0 0 503.85699999999997 387.798  L 503.85699999999997,394.0  L 18.5,394.0  L 18.5,0.0  L 1179.0,394.0" fill="none" stroke="rgb(0, 100, 0)" stroke-width="0.2"/>
  </g>
  <g id="id8:id8" transform="matrix(1.0,0,0,1.0,9019.199,333.0)">
    <path d="M 260.16700000000003,1172.0  L 393.5,1172.0  L 393.5,0.0  L 260.16700000000003,0.0  L 260.16700000000003,3.7999999999999545  A 4.1,4.1 0 0 1 260.16700000000003 12.0  L 126.833,12.0  A 4.1,4.1 0 0 1 126.833 3.7999999999999545  L 126.833,0.0  L 0.0,0.0  L 0.0,500.35699999999997  L 3.8000000000000114,500.35699999999997  A 4.1,4.1 0 0 1 12.0 500.35699999999997  L 12.0,671.643  A 4.1,4.1 0 0 1 3.8000000000000114 671.643  L 0.0,671.643  L 0.0,1172.0  L 126.833,1172.0  L 126.833,1168.2  A 4.1,4.1 0 0 1 126.833 1160.0  L 260.16700000000003,1160.0  A 4.1,4.1 0 0 1 260.16700000000003 1168.2  L 260.16700000000003,1172.0" fill="none" stroke="rgb(100, 0, 18)" stroke-width="0.2"/>
    <path d="M 136.833,786.75  L 69.167,786.75  A 4.1,4.1 0 0 1 69.167 778.55  L 69.167,776.45  A 4.1,4.1 0 0 1 69.167 768.25  L 136.833,768.25  A 4.1,4.1 0 0 1 136.833 776.45  L 136.833,778.55  A 4.1,4.1 0 0 1 136.833 786.75" fill="none" stroke="rgb(100, 0, 18)" stroke-width="0.2"/>
    <path d="M 136.833,385.25  A 4.1,4.1 0 0 1 136.833 393.45  L 136.833,395.55  A 4.1,4.1 0 0 1 136.833 403.75  L 69.167,403.75  A 4.1,4.1 0 0 1 69.167 395.55  L 69.167,393.45  A 4.1,4.1 0 0 1 69.167 385.25  L 136.833,385.25" fill="none" stroke="rgb(100, 0, 18)" stroke-width="0.2"/>
    <path d="M 75.0,1146.0  L 75.0,1091.0  L 20.0,1091.0  L 20.0,1146.0  L 75.0,1146.0" fill="none" stroke="rgb(0, 100, 0)" stroke-width="0.2"/>
    <path d="M 367.5,1091.0  L 312.5,1091.0  L 312.5,1146.0  L 367.5,1146.0  L 367.5,1091.0" fill="none" stroke="rgb(0, 100, 0)" stroke-width="0.2"/>
    <path d="M 75.0,26.0  L 20.0,26.0  L 20.0,81.0  L 75.0,81.0  L 75.0,26.0" fill="none" stroke="rgb(0, 100, 0)" stroke-width="0.2"/>
    <path d="M 367.5,81.0  L 367.5,26.0  L 312.5,26.0  L 312.5,81.0  L 367.5,81.0" fill="none" stroke="rgb(0, 100, 0)" stroke-width="0.2"/>
  </g>
  <g id="id9:id9" transform="matrix(1.0,0,0,1.0,9512.699,904.0)">
    <path d="M 20.0,0.0  A 20.0,20.0 0 0 0 0.0 20.0  L 0.0,30.0  L 520.0,30.0  L 520.0,20.0  A 20.0,20.0 0 0 0 500.0 0.0  L 20.0,0.0" fill="none" stroke="rgb(100, 0, 18)" stroke-width="0.2"/>
  </g>
  <g id="id10:id10" transform="matrix(1.0,0,0,1.0,10132.699,425.0)">
    <path d="M 0.0,0.0  L 0.0,988.0  L 100.0,888.0  L 100.0,100.0  L 0.0,0.0" fill="none" stroke="rgb(100, 0, 18)" stroke-width="0.2"/>
  </g>
  <g id="id11:id11" transform="matrix(1.0,0,0,1.0,10332.699,834.0)">
    <path d="M 0.0,100.0  L 0.0,135.0  A 15.0,15.0 0 0 0 15.0 150.0  L 330.0,150.0  L 645.0,150.0  A 15.0,15.0 0 0 0 660.0 135.0  L 660.0,100.0  A 30.0,30.0 0 0 0 630.0 70.0  L 550.5260000000001,70.0  A 100.0,100.0 0 0 0 511.134 78.08500000000001  L 478.866,91.91499999999999  A 100.0,100.0 0 0 1 439.474 100.0  L 330.0,100.0  L 220.526,100.0  A 100.0,100.0 0 0 1 181.134 91.91499999999999  L 148.866,78.08500000000001  A 100.0,100.0 0 0 0 109.47399999999999 70.0  L 30.0,70.0  A 30.0,30.0 0 0 0 0.0 100.0" fill="none" stroke="rgb(100, 0, 18)" stroke-width="0.2"/>
    <path d="M 230.0,127.0  A 4.1,4.1 0 0 1 230.0 135.2  L 230.0,136.8  A 4.1,4.1 0 0 1 230.0 145.0  L 190.0,145.0  A 4.1,4.1 0 0 1 190.0 136.8  L 190.0,135.2  A 4.1,4.1 0 0 1 190.0 127.0  L 230.0,127.0" fill="none" stroke="rgb(100, 0, 18)" stroke-width="0.2"/>
    <path d="M 150.0,127.0  A 4.1,4.1 0 0 1 150.0 135.2  L 150.0,136.8  A 4.1,4.1 0 0 1 150.0 145.0  L 110.0,145.0  A 4.1,4.1 0 0 1 110.0 136.8  L 110.0,135.2  A 4.1,4.1 0 0 1 110.0 127.0  L 150.0,127.0" fill="none" stroke="rgb(100, 0, 18)" stroke-width="0.2"/>
    <path d="M 630.0,139.202  A 4.1,4.1 0 0 1 624.202 145.0  L 590.0,145.0  A 4.1,4.1 0 0 1 590.0 136.8  L 590.0,135.2  A 4.1,4.1 0 0 1 590.0 127.0  L 624.202,127.0  A 4.1,4.1 0 0 1 630.0 132.798  L 630.0,139.202" fill="none" stroke="rgb(100, 0, 18)" stroke-width="0.2"/>
    <path d="M 30.0,139.202  L 30.0,132.798  A 4.1,4.1 0 0 0 35.798 127.0  L 70.0,127.0  A 4.1,4.1 0 0 1 70.0 135.2  L 70.0,136.8  A 4.1,4.1 0 0 1 70.0 145.0  L 35.798,145.0  A 4.1,4.1 0 0 1 30.0 139.202" fill="none" stroke="rgb(100, 0, 18)" stroke-width="0.2"/>
    <path d="M 310.0,127.0  A 4.1,4.1 0 0 1 310.0 135.2  L 310.0,136.8  A 4.1,4.1 0 0 1 310.0 145.0  L 270.0,145.0  A 4.1,4.1 0 0 1 270.0 136.8  L 270.0,135.2  A 4.1,4.1 0 0 1 270.0 127.0  L 310.0,127.0" fill="none" stroke="rgb(100, 0, 18)" stroke-width="0.2"/>
    <path d="M 390.0,127.0  A 4.1,4.1 0 0 1 390.0 135.2  L 390.0,136.8  A 4.1,4.1 0 0 1 390.0 145.0  L 350.0,145.0  A 4.1,4.1 0 0 1 350.0 136.8  L 350.0,135.2  A 4.1,4.1 0 0 1 350.0 127.0  L 390.0,127.0" fill="none" stroke="rgb(100, 0, 18)" stroke-width="0.2"/>
    <path d="M 470.0,127.0  A 4.1,4.1 0 0 1 470.0 135.2  L 470.0,136.8  A 4.1,4.1 0 0 1 470.0 145.0  L 430.0,145.0  A 4.1,4.1 0 0 1 430.0 136.8  L 430.0,135.2  A 4.1,4.1 0 0 1 430.0 127.0  L 470.0,127.0" fill="none" stroke="rgb(100, 0, 18)" stroke-width="0.2"/>
    <path d="M 550.0,127.0  A 4.1,4.1 0 0 1 550.0 135.2  L 550.0,136.8  A 4.1,4.1 0 0 1 550.0 145.0  L 510.0,145.0  A 4.1,4.1 0 0 1 510.0 136.8  L 510.0,135.2  A 4.1,4.1 0 0 1 510.0 127.0  L 550.0,127.0" fill="none" stroke="rgb(100, 0, 18)" stroke-width="0.2"/>
    <path d="M 630.0,127.0  L 630.0,89.798  A 4.1,4.1 0 0 0 624.202 84.0  L 583.798,84.0  A 4.1,4.1 0 0 0 578.0 89.798  L 578.0,130.202  A 4.1,4.1 0 0 0 583.798 136.0  L 590.0,136.0  L 630.0,127.0" fill="none" stroke="rgb(0, 100, 0)" stroke-width="0.2"/>
    <path d="M 29.125,131.5  A 4.1,4.1 0 0 0 30.0 136.0  L 29.125,131.5" fill="none" stroke="rgb(0, 100, 0)" stroke-width="0.2"/>
    <path d="M 70.0,136.0  L 76.202,136.0  A 4.1,4.1 0 0 0 82.0 130.202  L 82.0,89.798  A 4.1,4.1 0 0 0 76.202 84.0  L 35.798,84.0  A 4.1,4.1 0 0 0 30.0 89.798  L 30.0,127.0  L 70.0,136.0" fill="none" stroke="rgb(0, 100, 0)" stroke-width="0.2"/>
  </g>
  <g id="id12:id12" transform="matrix(1.0,0,0,1.0,11092.699,609.0)">
    <path d="M 8.800000000000011,530.0  A 4.1,4.1 0 0 1 17.0 530.0  L 17.0,570.0  A 4.1,4.1 0 0 1 8.800000000000011 570.0  L 0.0,570.0  L 0.0,610.0  L 8.800000000000011,610.0  A 4.1,4.1 0 0 1 17.0 610.0  L 17.0,620.0  L 46.274,620.0  A 15.0,15.0 0 0 0 61.214999999999975 606.328  L 78.09899999999999,416.403  A 25.0,25.0 0 0 1 101.447 393.665  L 892.932,344.376  A 15.0,15.0 0 0 0 907.0 329.405  L 907.0,310.0  L 907.0,290.595  A 15.0,15.0 0 0 0 892.932 275.624  L 101.447,226.33499999999998  A 25.0,25.0 0 0 1 78.09899999999999 203.59699999999998  L 61.214999999999975,13.672000000000025  A 15.0,15.0 0 0 0 46.274 0.0  L 17.0,0.0  L 17.0,10.0  A 4.1,4.1 0 0 1 8.800000000000011 10.0  L 0.0,10.0  L 0.0,50.0  L 8.800000000000011,50.0  A 4.1,4.1 0 0 1 17.0 50.0  L 17.0,90.0  A 4.1,4.1 0 0 1 8.800000000000011 90.0  L 0.0,90.0  L 0.0,130.0  L 8.800000000000011,130.0  A 4.1,4.1 0 0 1 17.0 130.0  L 17.0,170.0  A 4.1,4.1 0 0 1 8.800000000000011 170.0  L 0.0,170.0  L 0.0,210.0  L 8.800000000000011,210.0  A 4.1,4.1 0 0 1 17.0 210.0  L 17.0,250.0  A 4.1,4.1 0 0 1 8.800000000000011 250.0  L 0.0,250.0  L 0.0,290.0  L 8.800000000000011,290.0  A 4.1,4.1 0 0 1 17.0 290.0  L 17.0,310.0  L 17.0,330.0  A 4.1,4.1 0 0 1 8.800000000000011 330.0  L 0.0,330.0  L 0.0,370.0  L 8.800000000000011,370.0  A 4.1,4.1 0 0 1 17.0 370.0  L 17.0,410.0  A 4.1,4.1 0 0 1 8.800000000000011 410.0  L 0.0,410.0  L 0.0,450.0  L 8.800000000000011,450.0  A 4.1,4.1 0 0 1 17.0 450.0  L 17.0,490.0  A 4.1,4.1 0 0 1 8.800000000000011 490.0  L 0.0,490.0  L 0.0,530.0  L 8.800000000000011,530.0" fill="none" stroke="rgb(100, 0, 18)" stroke-width="0.2"/>
    <path d="M 907.0,301.0  L 162.798,301.0  A 4.1,4.1 0 0 0 157.0 306.798  L 157.0,313.202  A 4.1,4.1 0 0 0 162.798 319.0  L 907.0,319.0  L 907.0,301.0" fill="none" stroke="rgb(0, 100, 0)" stroke-width="0.2"/>
    <path d="M 102.45600000000002,310.0  L 142.76100000000002,269.695  A 4.1,4.1 0 0 1 136.96300000000002 263.897  L 135.83100000000002,262.765  A 4.1,4.1 0 0 0 130.03300000000002 256.967  L 81.10000000000002,305.9  A 4.1,4.1 0 0 0 81.10000000000002 314.1  L 130.03300000000002,363.033  A 4.1,4.1 0 0 0 135.83100000000002 357.235  L 136.96300000000002,356.103  A 4.1,4.1 0 0 0 142.76100000000002 350.305  L 102.45600000000002,310.0" fill="none" stroke="rgb(0, 100, 0)" stroke-width="0.2"/>
  </g>
  <g id="id13:id13" transform="matrix(1.0,0,0,1.0,12099.699,334.5)">
    <path d="M 264.66700000000003,1164.798  A 4.1,4.1 0 0 1 270.46500000000003 1159.0  L 392.0,1159.0  L 392.0,10.0  L 270.46500000000003,10.0  A 4.1,4.1 0 0 1 264.66700000000003 4.201999999999998  L 264.66700000000003,3.4640000000000555  L 262.66700000000003,0.0  L 139.333,0.0  L 137.333,3.4640000000000555  L 137.333,4.201999999999998  A 4.1,4.1 0 0 1 131.535 10.0  L 10.0,10.0  L 10.0,228.60199999999998  A 4.1,4.1 0 0 1 4.201999999999998 234.39999999999998  L 3.4639999999999986,234.39999999999998  L 0.0,236.39999999999998  L 0.0,383.75  L 102.0,383.75  A 4.1,4.1 0 0 1 102.0 391.95  L 102.0,394.05  A 4.1,4.1 0 0 1 102.0 402.25  L 0.0,402.25  L 0.0,465.8  L 3.4639999999999986,467.8  L 4.201999999999998,467.8  A 4.1,4.1 0 0 1 10.0 473.598  L 10.0,695.402  A 4.1,4.1 0 0 1 4.201999999999998 701.2  L 3.4639999999999986,701.2  L 0.0,703.2  L 0.0,766.75  L 102.0,766.75  A 4.1,4.1 0 0 1 102.0 774.95  L 102.0,777.05  A 4.1,4.1 0 0 1 102.0 785.25  L 0.0,785.25  L 0.0,932.6  L 3.4639999999999986,934.6  L 4.201999999999998,934.6  A 4.1,4.1 0 0 1 10.0 940.398  L 10.0,1159.0  L 131.535,1159.0  A 4.1,4.1 0 0 1 137.333 1164.798  L 137.333,1165.536  L 139.333,1169.0  L 262.66700000000003,1169.0  L 264.66700000000003,1165.536  L 264.66700000000003,1164.798" fill="none" stroke="rgb(100, 0, 18)" stroke-width="0.2"/>
  </g>
  <g id="id14:id14" transform="matrix(1.0,0,0,1.0,12591.699,851.5)">
    <path d="M 1295.9,0.0  L 1295.9,18.0  A 4.1,4.1 0 0 1 1287.7 18.0  L 1204.1000000000001,18.0  A 4.1,4.1 0 0 1 1195.9 18.0  L 1195.9,0.0  L 1095.9,0.0  L 1095.9,18.0  A 4.1,4.1 0 0 1 1087.7 18.0  L 1004.1000000000001,18.0  A 4.1,4.1 0 0 1 995.9000000000001 18.0  L 995.9000000000001,0.0  L 895.9000000000001,0.0  L 895.9000000000001,18.0  A 4.1,4.1 0 0 1 887.7 18.0  L 804.1000000000001,18.0  A 4.1,4.1 0 0 1 795.9000000000001 18.0  L 795.9000000000001,0.0  L 695.9000000000001,0.0  L 695.9000000000001,18.0  A 4.1,4.1 0 0 1 687.7 18.0  L 604.1000000000001,18.0  A 4.1,4.1 0 0 1 595.9000000000001 18.0  L 595.9000000000001,0.0  L 495.9000000000001,0.0  L 495.9000000000001,18.0  A 4.1,4.1 0 0 1 487.70000000000005 18.0  L 404.10000000000014,18.0  A 4.1,4.1 0 0 1 395.9000000000001 18.0  L 395.9000000000001,0.0  L 295.9000000000001,0.0  L 295.9000000000001,18.0  A 4.1,4.1 0 0 1 287.70000000000005 18.0  L 204.10000000000014,18.0  A 4.1,4.1 0 0 1 195.9000000000001 18.0  L 195.9000000000001,0.0  L 95.90000000000009,0.0  L 95.90000000000009,18.0  A 4.1,4.1 0 0 1 87.70000000000005 18.0  L 4.100000000000136,18.0  A 4.1,4.1 0 0 1 2.900000000000091 20.898000000000003  L 2.900000000000091,100.0  L 30.90000000000009,100.0  A 4.0,4.0 0 0 1 30.90000000000009 108.0  L 30.90000000000009,135.0  L 1095.9,135.0  L 2160.9,135.0  L 2160.9,108.0  A 4.0,4.0 0 0 1 2160.9 100.0  L 2188.9,100.0  L 2188.9,0.0  L 2095.9,0.0  L 2095.9,18.0  A 4.1,4.1 0 0 1 2087.7 18.0  L 2004.1000000000001,18.0  A 4.1,4.1 0 0 1 1995.9 18.0  L 1995.9,0.0  L 1895.9,0.0  L 1895.9,18.0  A 4.1,4.1 0 0 1 1887.7 18.0  L 1804.1000000000001,18.0  A 4.1,4.1 0 0 1 1795.9 18.0  L 1795.9,0.0  L 1695.9,0.0  L 1695.9,18.0  A 4.1,4.1 0 0 1 1687.7 18.0  L 1604.1000000000001,18.0  A 4.1,4.1 0 0 1 1595.9 18.0  L 1595.9,0.0  L 1495.9,0.0  L 1495.9,18.0  A 4.1,4.1 0 0 1 1487.7 18.0  L 1404.1000000000001,18.0  A 4.1,4.1 0 0 1 1395.9 18.0  L 1395.9,0.0  L 1295.9,0.0" fill="none" stroke="rgb(100, 0, 18)" stroke-width="0.2"/>
  </g>
  <g id="id15:id15" transform="matrix(1.0,0,0,1.0,14880.599,329.5)">
    <path d="M 0.0,1179.0  L 1173.0,1179.0  L 1173.0,0.0  L 0.0,0.0  L 0.0,1179.0" fill="none" stroke="rgb(100, 0, 18)" stroke-width="0.2"/>
    <path d="M 12.5,1167.0  L 12.5,18.5  L 1160.5,18.5  L 1160.5,1167.0  L 12.5,1167.0" fill="none" stroke="rgb(0, 100, 12)" stroke-width="0.2"/>
    <path d="M 385.75,774.917  L 241.69799999999998,774.917  A 4.1,4.1 0 0 1 235.89999999999998 780.715  L 235.89999999999998,787.6179999999999  A 4.1,4.1 0 0 0 241.69799999999998 793.417  L 385.75,793.417  L 385.75,903.952  A 4.1,4.1 0 0 0 391.548 909.75  L 398.452,909.75  A 4.1,4.1 0 0 0 404.25 903.952  L 404.25,793.417  L 464.502,793.417  A 4.1,4.1 0 0 0 470.3 787.6179999999999  L 470.3,780.715  A 4.1,4.1 0 0 0 464.502 774.917  L 404.25,774.917  L 404.25,703.548  A 4.1,4.1 0 0 0 398.452 697.75  L 391.548,697.75  A 4.1,4.1 0 0 0 385.75 703.548  L 385.75,774.917" fill="none" stroke="rgb(0, 100, 12)" stroke-width="0.2"/>
    <path d="M 385.75,392.08299999999997  L 241.69799999999998,392.08299999999997  A 4.1,4.1 0 0 1 235.89999999999998 397.882  L 235.89999999999998,404.78499999999997  A 4.1,4.1 0 0 0 241.69799999999998 410.58299999999997  L 385.75,410.58299999999997  L 385.75,481.952  A 4.1,4.1 0 0 0 391.548 487.75  L 398.452,487.75  A 4.1,4.1 0 0 0 404.25 481.952  L 404.25,410.58299999999997  L 464.502,410.58299999999997  A 4.1,4.1 0 0 0 470.3 404.78499999999997  L 470.3,397.882  A 4.1,4.1 0 0 0 464.502 392.08299999999997  L 404.25,392.08299999999997  L 404.25,281.548  A 4.1,4.1 0 0 0 398.452 275.75  L 391.548,275.75  A 4.1,4.1 0 0 0 385.75 281.548  L 385.75,392.08299999999997" fill="none" stroke="rgb(0, 100, 12)" stroke-width="0.2"/>
    <path d="M 768.75,774.917  L 708.498,774.917  A 4.1,4.1 0 0 0 702.7 780.715  L 702.7,787.6179999999999  A 4.1,4.1 0 0 0 708.498 793.417  L 768.75,793.417  L 768.75,903.952  A 4.1,4.1 0 0 0 774.548 909.75  L 781.452,909.75  A 4.1,4.1 0 0 0 787.25 903.952  L 787.25,793.417  L 931.302,793.417  A 4.1,4.1 0 0 0 937.1 787.6179999999999  L 937.1,780.715  A 4.1,4.1 0 0 0 931.302 774.917  L 787.25,774.917  L 787.25,703.548  A 4.1,4.1 0 0 0 781.452 697.75  L 774.548,697.75  A 4.1,4.1 0 0 0 768.75 703.548  L 768.75,774.917" fill="none" stroke="rgb(0, 100, 12)" stroke-width="0.2"/>
    <path d="M 768.75,392.08299999999997  L 708.498,392.08299999999997  A 4.1,4.1 0 0 0 702.7 397.882  L 702.7,404.78499999999997  A 4.1,4.1 0 0 0 708.498 410.58299999999997  L 768.75,410.58299999999997  L 768.75,481.952  A 4.1,4.1 0 0 0 774.548 487.75  L 781.452,487.75  A 4.1,4.1 0 0 0 787.25 481.952  L 787.25,410.58299999999997  L 931.302,410.58299999999997  A 4.1,4.1 0 0 0 937.1 404.78499999999997  L 937.1,397.882  A 4.1,4.1 0 0 0 931.302 392.08299999999997  L 787.25,392.08299999999997  L 787.25,281.548  A 4.1,4.1 0 0 0 781.452 275.75  L 774.548,275.75  A 4.1,4.1 0 0 0 768.75 281.548  L 768.75,392.08299999999997" fill="none" stroke="rgb(0, 100, 12)" stroke-width="0.2"/>
  </g>
  <g id="id16:id16" transform="matrix(1.0,0,0,1.0,16153.599,419.0)">
    <path d="M 2400.0,150.0  A 150.0,150.0 0 0 0 2250.0 0.0  L 150.0,0.0  A 150.0,150.0 0 0 0 0.0 150.0  L 0.0,850.0  A 150.0,150.0 0 0 0 150.0 1000.0  L 2250.0,1000.0  A 150.0,150.0 0 0 0 2400.0 850.0  L 2400.0,150.0" fill="none" stroke="rgb(100, 0, 18)" stroke-width="0.2"/>
    <path d="M 2018.5,575.5  L 1800.0,575.5  L 1581.5,575.5  A 22.0,22.0 0 0 1 1559.5 553.5  L 1559.5,446.5  A 22.0,22.0 0 0 1 1581.5 424.5  L 1800.0,424.5  L 2018.5,424.5  A 22.0,22.0 0 0 1 2040.5 446.5  L 2040.5,553.5  A 22.0,22.0 0 0 1 2018.5 575.5" fill="none" stroke="rgb(100, 0, 18)" stroke-width="0.2"/>
    <path d="M 840.5,553.5  A 22.0,22.0 0 0 1 818.5 575.5  L 600.0,575.5  L 381.5,575.5  A 22.0,22.0 0 0 1 359.5 553.5  L 359.5,500.0  L 359.5,446.5  A 22.0,22.0 0 0 1 381.5 424.5  L 600.0,424.5  L 818.5,424.5  A 22.0,22.0 0 0 1 840.5 446.5  L 840.5,500.0  L 840.5,553.5" fill="none" stroke="rgb(100, 0, 18)" stroke-width="0.2"/>
    <path d="M 249.25,899.5  A 4.0,4.0 0 0 0 241.25 899.5  L 221.75,899.5  A 4.0,4.0 0 0 0 213.75 899.5  L 213.75,950.5  A 4.0,4.0 0 0 0 221.75 950.5  L 241.25,950.5  A 4.0,4.0 0 0 0 249.25 950.5  L 249.25,899.5" fill="none" stroke="rgb(0, 100, 0)" stroke-width="0.2"/>
    <path d="M 249.25,100.5  L 249.25,49.5  A 4.0,4.0 0 0 0 241.25 49.5  L 221.75,49.5  A 4.0,4.0 0 0 0 213.75 49.5  L 213.75,100.5  A 4.0,4.0 0 0 0 221.75 100.5  L 241.25,100.5  A 4.0,4.0 0 0 0 249.25 100.5" fill="none" stroke="rgb(0, 100, 0)" stroke-width="0.2"/>
    <path d="M 2163.9,869.5  A 4.1,4.1 0 0 1 2172.1 869.5  A 4.1,4.1 0 0 1 2163.9 869.5" fill="none" stroke="rgb(0, 100, 0)" stroke-width="0.2"/>
    <path d="M 2157.75,899.5  A 4.0,4.0 0 0 0 2149.75 899.5  L 2149.75,950.5  A 4.0,4.0 0 0 0 2157.75 950.5  L 2178.25,950.5  A 4.0,4.0 0 0 0 2186.25 950.5  L 2186.25,899.5  A 4.0,4.0 0 0 0 2178.25 899.5  L 2157.75,899.5" fill="none" stroke="rgb(0, 100, 0)" stroke-width="0.2"/>
    <path d="M 2163.9,130.5  A 4.1,4.1 0 0 0 2172.1 130.5  A 4.1,4.1 0 0 0 2163.9 130.5" fill="none" stroke="rgb(0, 100, 0)" stroke-width="0.2"/>
    <path d="M 2157.75,100.5  L 2178.25,100.5  A 4.0,4.0 0 0 0 2186.25 100.5  L 2186.25,49.5  A 4.0,4.0 0 0 0 2178.25 49.5  L 2157.75,49.5  A 4.0,4.0 0 0 0 2149.75 49.5  L 2149.75,100.5  A 4.0,4.0 0 0 0 2157.75 100.5" fill="none" stroke="rgb(0, 100, 0)" stroke-width="0.2"/>
  </g>
  <g id="id17:id17" transform="matrix(1.0,0,0,1.0,18653.599000000002,0.0)">
    <path d="M 0.0,0.0  L 0.0,1838.0  L 100.0,1738.0  L 100.0,100.0  L 0.0,0.0" fill="none" stroke="rgb(100, 0, 18)" stroke-width="0.2"/>
  </g>
  <g id="id18:id18" transform="matrix(1.0,0,0,1.0,18853.599000000002,851.5)">
    <path d="M 1178.5,135.0  L 1278.5,135.0  L 1278.5,117.0  A 4.0,4.0 0 0 1 1286.5 117.0  L 1370.5,117.0  A 4.0,4.0 0 0 1 1378.5 117.0  L 1378.5,135.0  L 1478.5,135.0  L 1478.5,117.0  A 4.0,4.0 0 0 1 1486.5 117.0  L 1570.5,117.0  A 4.0,4.0 0 0 1 1578.5 117.0  L 1578.5,135.0  L 1678.5,135.0  L 1678.5,117.0  A 4.0,4.0 0 0 1 1686.5 117.0  L 1770.5,117.0  A 4.0,4.0 0 0 1 1778.5 117.0  L 1778.5,135.0  L 1878.5,135.0  L 1878.5,117.0  A 4.0,4.0 0 0 1 1886.5 117.0  L 1957.0,117.0  L 1957.0,46.0  L 1929.0,46.0  A 4.1,4.1 0 0 1 1929.0 37.8  L 1929.0,0.0  L 978.5,0.0  L 28.0,0.0  L 28.0,37.8  A 4.1,4.1 0 0 1 28.0 46.0  L 0.0,46.0  L 0.0,135.0  L 78.5,135.0  L 78.5,117.0  A 4.0,4.0 0 0 1 86.5 117.0  L 170.5,117.0  A 4.0,4.0 0 0 1 178.5 117.0  L 178.5,135.0  L 278.5,135.0  L 278.5,117.0  A 4.0,4.0 0 0 1 286.5 117.0  L 370.5,117.0  A 4.0,4.0 0 0 1 378.5 117.0  L 378.5,135.0  L 478.5,135.0  L 478.5,117.0  A 4.0,4.0 0 0 1 486.5 117.0  L 570.5,117.0  A 4.0,4.0 0 0 1 578.5 117.0  L 578.5,135.0  L 678.5,135.0  L 678.5,117.0  A 4.0,4.0 0 0 1 686.5 117.0  L 770.5,117.0  A 4.0,4.0 0 0 1 778.5 117.0  L 778.5,135.0  L 878.5,135.0  L 878.5,117.0  A 4.0,4.0 0 0 1 886.5 117.0  L 970.5,117.0  A 4.0,4.0 0 0 1 978.5 117.0  L 978.5,135.0  L 1078.5,135.0  L 1078.5,117.0  A 4.0,4.0 0 0 1 1086.5 117.0  L 1170.5,117.0  A 4.0,4.0 0 0 1 1178.5 117.0  L 1178.5,135.0" fill="none" stroke="rgb(100, 0, 18)" stroke-width="0.2"/>
  </g>
</svg>
