<?xml version="1.0" standalone="no"?>
<!DOCTYPE svg PUBLIC "-//W3C//DTD SVG 1.1//EN"
 "http://www.w3.org/Graphics/SVG/1.1/DTD/svg11.dtd">
<!-- Created with svg_stack (http://github.com/astraw/svg_stack) -->
<svg xmlns:ev="http://www.w3.org/2001/xml-events" xmlns:sodipodi="http://sodipodi.sourceforge.net/DTD/sodipodi-0.dtd" xmlns:xlink="http://www.w3.org/1999/xlink" xmlns="http://www.w3.org/2000/svg" version="1.1" width="14001.0" height="731.0">
  <defs/>
  <g id="id0:id0" transform="matrix(1.0,0,0,1.0,0.0,338.0)">
    <path d="M 974.5,55.0  L 1925.0,55.0  L 1925.0,43.2  A 4.1,4.1 0 0 1 1925.0 35.0  L 1949.0,35.0  L 1949.0,0.0  L 0.0,0.0  L 0.0,35.0  L 24.0,35.0  A 4.1,4.1 0 0 1 24.0 43.2  L 24.0,55.0  L 974.5,55.0" fill="none" stroke="rgb(100, 0, 35)" stroke-width="0.2"/>
  </g>
  <g id="id1:id1" transform="matrix(1.0,0,0,1.0,2049.0,321.5)">
    <path d="M 1093.0,0.0  L 28.0,0.0  L 28.0,53.0  A 4.1,4.1 0 0 1 19.799999999999955 53.0  L 0.0,53.0  L 0.0,88.0  L 1093.0,88.0  L 2186.0,88.0  L 2186.0,53.0  L 2166.2,53.0  A 4.1,4.1 0 0 1 2158.0 53.0  L 2158.0,0.0  L 1093.0,0.0" fill="none" stroke="rgb(100, 0, 35)" stroke-width="0.2"/>
  </g>
  <g id="id2:id2" transform="matrix(1.0,0,0,1.0,4335.0,0.0)">
    <path d="M 980.0,0.0  L 898.702,0.0  L 536.667,457.421  A 59.515,59.515 0 0 1 490.0 480.0  A 59.515,59.515 0 0 1 443.33299999999997 457.421  L 81.298,0.0  L 0.0,0.0  L 0.0,22.0  L 294.124,468.731  A 80.0,80.0 0 0 1 253.191 588.42  L 0.0,675.0  L 0.0,731.0  L 50.0,731.0  L 50.0,720.0  A 4.1,4.1 0 0 1 58.19999999999999 720.0  L 422.016,720.0  L 437.017,705.0  L 490.0,705.0  L 542.983,705.0  L 557.984,720.0  L 921.8,720.0  A 4.1,4.1 0 0 1 930.0 720.0  L 930.0,731.0  L 980.0,731.0  L 980.0,675.0  L 726.809,588.42  A 80.0,80.0 0 0 1 685.876 468.731  L 980.0,22.0  L 980.0,0.0" fill="none" stroke="rgb(100, 0, 35)" stroke-width="0.2"/>
    <path d="M 907.5,720.0  L 907.5,685.0  A 4.1,4.1 0 0 0 899.3 685.0  L 880.1859999999999,685.0  A 4.1,4.1 0 0 0 872.0 685.336  L 873.0,697.5  L 872.0,710.0  L 872.0,720.0  L 907.5,720.0" fill="none" stroke="rgb(0, 100, 30)" stroke-width="0.2"/>
    <path d="M 542.679,648.842  A 4.0,4.0 0 0 0 548.336 654.499  L 561.418,641.418  A 4.0,4.0 0 0 0 555.761 635.761  L 494.1,574.1  A 4.1,4.1 0 0 0 490.0 570.0  A 4.1,4.1 0 0 0 485.9 574.1  L 424.23900000000003,635.761  A 4.0,4.0 0 0 0 418.582 641.418  L 431.664,654.499  A 4.0,4.0 0 0 0 437.321 648.842  L 490.0,596.163  L 542.679,648.842" fill="none" stroke="rgb(0, 100, 30)" stroke-width="0.2"/>
    <path d="M 752.5,720.0  L 752.5,685.0  A 4.1,4.1 0 0 0 744.3 685.0  L 725.186,685.0  A 4.1,4.1 0 0 0 717.0 685.336  L 718.0,697.5  L 717.0,710.0  L 717.0,720.0  L 752.5,720.0" fill="none" stroke="rgb(0, 100, 30)" stroke-width="0.2"/>
    <path d="M 263.0,720.0  L 263.0,710.0  L 262.0,697.5  L 263.0,685.336  A 4.1,4.1 0 0 0 254.814 685.0  L 235.7,685.0  A 4.1,4.1 0 0 0 227.5 685.0  L 227.5,720.0  L 263.0,720.0" fill="none" stroke="rgb(0, 100, 30)" stroke-width="0.2"/>
    <path d="M 108.0,720.0  L 108.0,710.0  L 107.0,697.5  L 108.0,685.336  A 4.1,4.1 0 0 0 99.81400000000002 685.0  L 80.69999999999999,685.0  A 4.1,4.1 0 0 0 72.5 685.0  L 72.5,720.0  L 108.0,720.0" fill="none" stroke="rgb(0, 100, 30)" stroke-width="0.2"/>
    <path d="M 472.5,477.369  L 472.5,512.369  A 4.1,4.1 0 0 0 480.7 512.369  L 499.3,512.369  A 4.1,4.1 0 0 0 507.5 512.369  L 507.5,477.369  L 472.5,477.369" fill="none" stroke="rgb(0, 100, 30)" stroke-width="0.2"/>
  </g>
  <g id="id3:id3" transform="matrix(1.0,0,0,1.0,5415.0,337.0)">
    <path d="M 1093.0,0.0  L 0.0,0.0  L 0.0,35.0  L 19.799999999999955,35.0  A 4.1,4.1 0 0 1 28.0 35.0  L 28.0,57.0  L 1093.0,57.0  L 2158.0,57.0  L 2158.0,35.0  A 4.1,4.1 0 0 1 2166.2 35.0  L 2186.0,35.0  L 2186.0,0.0  L 1093.0,0.0" fill="none" stroke="rgb(100, 0, 35)" stroke-width="0.2"/>
  </g>
  <g id="id4:id4" transform="matrix(1.0,0,0,1.0,7701.0,320.5)">
    <path d="M 1093.0,0.0  L 0.0,0.0  L 0.0,35.0  L 19.799999999999955,35.0  A 4.1,4.1 0 0 1 28.0 35.0  L 28.0,90.0  L 1093.0,90.0  L 2158.0,90.0  L 2158.0,35.0  A 4.1,4.1 0 0 1 2166.2 35.0  L 2186.0,35.0  L 2186.0,0.0  L 1093.0,0.0" fill="none" stroke="rgb(100, 0, 35)" stroke-width="0.2"/>
  </g>
  <g id="id5:id5" transform="matrix(1.0,0,0,1.0,9987.0,220.25)">
    <path d="M 120.85900000000004,150.0  A 150.0,150.0 0 0 0 135.10900000000004 149.322  L 220.43899999999996,141.178  A 150.0,150.0 0 0 1 234.68899999999996 140.5  L 978.5,140.5  L 1722.3110000000001,140.5  A 150.0,150.0 0 0 1 1736.5610000000001 141.178  L 1821.891,149.322  A 150.0,150.0 0 0 0 1836.141 150.0  L 1929.0,150.0  L 1929.0,123.7  A 4.1,4.1 0 0 1 1929.0 115.5  L 1938.8,115.5  A 4.1,4.1 0 0 1 1947.0 115.5  L 1947.0,126.0  A 2.0,2.0 0 0 0 1949.0 128.0  L 1957.0,128.0  L 1957.0,78.0  L 1937.2,78.0  A 4.1,4.1 0 0 1 1929.0 78.0  L 1929.0,58.0  L 978.5,58.0  L 28.0,58.0  L 28.0,103.0  A 4.1,4.1 0 0 1 19.799999999999955 103.0  L 0.0,103.0  L 0.0,143.0  L 19.799999999999955,143.0  A 4.1,4.1 0 0 1 28.0 143.0  L 28.0,150.0  L 120.85900000000004,150.0" fill="none" stroke="rgb(100, 0, 35)" stroke-width="0.2"/>
  </g>
  <g id="id6:id6" transform="matrix(1.0,0,0,1.0,12044.0,283.5)">
    <path d="M 32.388000000000034,164.0  A 16.0,16.0 0 0 0 42.38300000000004 160.494  L 93.61699999999996,119.506  A 16.0,16.0 0 0 1 103.61199999999997 116.0  L 978.5,116.0  L 1853.388,116.0  A 16.0,16.0 0 0 1 1863.383 119.506  L 1914.617,160.494  A 16.0,16.0 0 0 0 1924.612 164.0  L 1957.0,164.0  L 1957.0,114.0  L 1937.2,114.0  A 4.1,4.1 0 0 1 1929.0 114.0  L 1929.0,0.0  L 978.5,0.0  L 28.0,0.0  L 28.0,114.0  A 4.1,4.1 0 0 1 19.799999999999955 114.0  L 0.0,114.0  L 0.0,164.0  L 32.388000000000034,164.0" fill="none" stroke="rgb(100, 0, 35)" stroke-width="0.2"/>
  </g>
</svg>
