<?xml version="1.0" encoding="utf-8" ?>
<svg baseProfile="full" height="164.0" version="1.1" viewBox="0 0 1957.0 164.0" width="1957.0" xmlns="http://www.w3.org/2000/svg" xmlns:ev="http://www.w3.org/2001/xml-events" xmlns:xlink="http://www.w3.org/1999/xlink"><defs /><path d="M 32.388000000000034,164.0  A 16.0,16.0 0 0 0 42.38300000000004 160.494  L 93.61699999999996,119.506  A 16.0,16.0 0 0 1 103.61199999999997 116.0  L 978.5,116.0  L 1853.388,116.0  A 16.0,16.0 0 0 1 1863.383 119.506  L 1914.617,160.494  A 16.0,16.0 0 0 0 1924.612 164.0  L 1957.0,164.0  L 1957.0,114.0  L 1937.2,114.0  A 4.1,4.1 0 0 1 1929.0 114.0  L 1929.0,0.0  L 978.5,0.0  L 28.0,0.0  L 28.0,114.0  A 4.1,4.1 0 0 1 19.799999999999955 114.0  L 0.0,114.0  L 0.0,164.0  L 32.388000000000034,164.0" fill="none" stroke="rgb(100, 0, 35)" stroke-width="0.2" /></svg>