<?xml version="1.0" encoding="utf-8" ?>
<svg baseProfile="full" height="290.5" version="1.1" viewBox="0 0 1957.0 290.5" width="1957.0" xmlns="http://www.w3.org/2000/svg" xmlns:ev="http://www.w3.org/2001/xml-events" xmlns:xlink="http://www.w3.org/1999/xlink"><defs /><path d="M 120.85900000000004,150.0  A 150.0,150.0 0 0 0 135.10900000000004 149.322  L 220.43899999999996,141.178  A 150.0,150.0 0 0 1 234.68899999999996 140.5  L 978.5,140.5  L 1722.3110000000001,140.5  A 150.0,150.0 0 0 1 1736.5610000000001 141.178  L 1821.891,149.322  A 150.0,150.0 0 0 0 1836.141 150.0  L 1929.0,150.0  L 1929.0,123.7  A 4.1,4.1 0 0 1 1929.0 115.5  L 1938.8,115.5  A 4.1,4.1 0 0 1 1947.0 115.5  L 1947.0,126.0  A 2.0,2.0 0 0 0 1949.0 128.0  L 1957.0,128.0  L 1957.0,78.0  L 1937.2,78.0  A 4.1,4.1 0 0 1 1929.0 78.0  L 1929.0,58.0  L 978.5,58.0  L 28.0,58.0  L 28.0,103.0  A 4.1,4.1 0 0 1 19.799999999999955 103.0  L 0.0,103.0  L 0.0,143.0  L 19.799999999999955,143.0  A 4.1,4.1 0 0 1 28.0 143.0  L 28.0,150.0  L 120.85900000000004,150.0" fill="none" stroke="rgb(100, 0, 35)" stroke-width="0.2" /></svg>