<?xml version="1.0" encoding="utf-8" ?>
<svg baseProfile="full" height="731.0" version="1.1" viewBox="0 0 980.0 731.0" width="980.0" xmlns="http://www.w3.org/2000/svg" xmlns:ev="http://www.w3.org/2001/xml-events" xmlns:xlink="http://www.w3.org/1999/xlink"><defs /><path d="M 980.0,0.0  L 898.702,0.0  L 536.667,457.421  A 59.515,59.515 0 0 1 490.0 480.0  A 59.515,59.515 0 0 1 443.33299999999997 457.421  L 81.298,0.0  L 0.0,0.0  L 0.0,22.0  L 294.124,468.731  A 80.0,80.0 0 0 1 253.191 588.42  L 0.0,675.0  L 0.0,731.0  L 50.0,731.0  L 50.0,720.0  A 4.1,4.1 0 0 1 58.19999999999999 720.0  L 422.016,720.0  L 437.017,705.0  L 490.0,705.0  L 542.983,705.0  L 557.984,720.0  L 921.8,720.0  A 4.1,4.1 0 0 1 930.0 720.0  L 930.0,731.0  L 980.0,731.0  L 980.0,675.0  L 726.809,588.42  A 80.0,80.0 0 0 1 685.876 468.731  L 980.0,22.0  L 980.0,0.0" fill="none" stroke="rgb(100, 0, 35)" stroke-width="0.2" /><path d="M 907.5,720.0  L 907.5,685.0  A 4.1,4.1 0 0 0 899.3 685.0  L 880.1859999999999,685.0  A 4.1,4.1 0 0 0 872.0 685.336  L 873.0,697.5  L 872.0,710.0  L 872.0,720.0  L 907.5,720.0" fill="none" stroke="rgb(0, 100, 30)" stroke-width="0.2" /><path d="M 542.679,648.842  A 4.0,4.0 0 0 0 548.336 654.499  L 561.418,641.418  A 4.0,4.0 0 0 0 555.761 635.761  L 494.1,574.1  A 4.1,4.1 0 0 0 490.0 570.0  A 4.1,4.1 0 0 0 485.9 574.1  L 424.23900000000003,635.761  A 4.0,4.0 0 0 0 418.582 641.418  L 431.664,654.499  A 4.0,4.0 0 0 0 437.321 648.842  L 490.0,596.163  L 542.679,648.842" fill="none" stroke="rgb(0, 100, 30)" stroke-width="0.2" /><path d="M 752.5,720.0  L 752.5,685.0  A 4.1,4.1 0 0 0 744.3 685.0  L 725.186,685.0  A 4.1,4.1 0 0 0 717.0 685.336  L 718.0,697.5  L 717.0,710.0  L 717.0,720.0  L 752.5,720.0" fill="none" stroke="rgb(0, 100, 30)" stroke-width="0.2" /><path d="M 263.0,720.0  L 263.0,710.0  L 262.0,697.5  L 263.0,685.336  A 4.1,4.1 0 0 0 254.814 685.0  L 235.7,685.0  A 4.1,4.1 0 0 0 227.5 685.0  L 227.5,720.0  L 263.0,720.0" fill="none" stroke="rgb(0, 100, 30)" stroke-width="0.2" /><path d="M 108.0,720.0  L 108.0,710.0  L 107.0,697.5  L 108.0,685.336  A 4.1,4.1 0 0 0 99.81400000000002 685.0  L 80.69999999999999,685.0  A 4.1,4.1 0 0 0 72.5 685.0  L 72.5,720.0  L 108.0,720.0" fill="none" stroke="rgb(0, 100, 30)" stroke-width="0.2" /><path d="M 472.5,477.369  L 472.5,512.369  A 4.1,4.1 0 0 0 480.7 512.369  L 499.3,512.369  A 4.1,4.1 0 0 0 507.5 512.369  L 507.5,477.369  L 472.5,477.369" fill="none" stroke="rgb(0, 100, 30)" stroke-width="0.2" /></svg>