<?xml version="1.0" encoding="utf-8" ?>
<svg baseProfile="full" height="135.0" version="1.1" viewBox="0 0 1957.0 135.0" width="1957.0" xmlns="http://www.w3.org/2000/svg" xmlns:ev="http://www.w3.org/2001/xml-events" xmlns:xlink="http://www.w3.org/1999/xlink"><defs /><path d="M 1178.5,135.0  L 1278.5,135.0  L 1278.5,117.0  A 4.0,4.0 0 0 1 1286.5 117.0  L 1370.5,117.0  A 4.0,4.0 0 0 1 1378.5 117.0  L 1378.5,135.0  L 1478.5,135.0  L 1478.5,117.0  A 4.0,4.0 0 0 1 1486.5 117.0  L 1570.5,117.0  A 4.0,4.0 0 0 1 1578.5 117.0  L 1578.5,135.0  L 1678.5,135.0  L 1678.5,117.0  A 4.0,4.0 0 0 1 1686.5 117.0  L 1770.5,117.0  A 4.0,4.0 0 0 1 1778.5 117.0  L 1778.5,135.0  L 1878.5,135.0  L 1878.5,117.0  A 4.0,4.0 0 0 1 1886.5 117.0  L 1957.0,117.0  L 1957.0,46.0  L 1929.0,46.0  A 4.1,4.1 0 0 1 1929.0 37.8  L 1929.0,0.0  L 978.5,0.0  L 28.0,0.0  L 28.0,37.8  A 4.1,4.1 0 0 1 28.0 46.0  L 0.0,46.0  L 0.0,135.0  L 78.5,135.0  L 78.5,117.0  A 4.0,4.0 0 0 1 86.5 117.0  L 170.5,117.0  A 4.0,4.0 0 0 1 178.5 117.0  L 178.5,135.0  L 278.5,135.0  L 278.5,117.0  A 4.0,4.0 0 0 1 286.5 117.0  L 370.5,117.0  A 4.0,4.0 0 0 1 378.5 117.0  L 378.5,135.0  L 478.5,135.0  L 478.5,117.0  A 4.0,4.0 0 0 1 486.5 117.0  L 570.5,117.0  A 4.0,4.0 0 0 1 578.5 117.0  L 578.5,135.0  L 678.5,135.0  L 678.5,117.0  A 4.0,4.0 0 0 1 686.5 117.0  L 770.5,117.0  A 4.0,4.0 0 0 1 778.5 117.0  L 778.5,135.0  L 878.5,135.0  L 878.5,117.0  A 4.0,4.0 0 0 1 886.5 117.0  L 970.5,117.0  A 4.0,4.0 0 0 1 978.5 117.0  L 978.5,135.0  L 1078.5,135.0  L 1078.5,117.0  A 4.0,4.0 0 0 1 1086.5 117.0  L 1170.5,117.0  A 4.0,4.0 0 0 1 1178.5 117.0  L 1178.5,135.0" fill="none" stroke="rgb(100, 0, 18)" stroke-width="0.2" /></svg>