<?xml version="1.0" encoding="utf-8" ?>
<svg baseProfile="full" height="822.98" version="1.1" viewBox="0 0 424.199 822.98" width="424.199" xmlns="http://www.w3.org/2000/svg" xmlns:ev="http://www.w3.org/2001/xml-events" xmlns:xlink="http://www.w3.org/1999/xlink"><defs /><path d="M 424.199,103.75800000000004  A 5.0,5.0 0 0 0 419.46 97.16200000000003  L 328.147,97.16200000000003  L 42.857,692.182  L 59.047,705.8480000000001  A 10.0,10.0 0 0 1 62.497 712.0840000000001  L 75.075,800.6800000000001  A 30.997,30.997 0 0 0 121.584 822.98  L 160.224,800.048  A 10.0,10.0 0 0 1 171.778 801.0060000000001  L 185.446,812.543  L 424.199,103.75800000000004" fill="none" stroke="rgb(100, 0, 18)" stroke-width="0.2" /><path d="M 357.743,208.85500000000002  L 339.962,256.12100000000004  A 4.1,4.1 0 0 1 332.287 253.23300000000006  L 314.41,246.50800000000004  A 4.1,4.1 0 0 1 306.736 243.62100000000004  L 324.517,196.35500000000002  A 4.1,4.1 0 0 1 332.192 199.24200000000008  L 350.068,205.96699999999998  A 4.1,4.1 0 0 1 357.743 208.85500000000002" fill="none" stroke="rgb(0, 100, 18)" stroke-width="0.2" /></svg>