<?xml version="1.0" encoding="utf-8" ?>
<svg baseProfile="full" height="1000.0" version="1.1" viewBox="0 0 2400.0 1000.0" width="2400.0" xmlns="http://www.w3.org/2000/svg" xmlns:ev="http://www.w3.org/2001/xml-events" xmlns:xlink="http://www.w3.org/1999/xlink"><defs /><path d="M 2400.0,150.0  A 150.0,150.0 0 0 0 2250.0 0.0  L 150.0,0.0  A 150.0,150.0 0 0 0 0.0 150.0  L 0.0,850.0  A 150.0,150.0 0 0 0 150.0 1000.0  L 2250.0,1000.0  A 150.0,150.0 0 0 0 2400.0 850.0  L 2400.0,150.0" fill="none" stroke="rgb(100, 0, 18)" stroke-width="0.2" /><path d="M 2018.5,575.5  L 1800.0,575.5  L 1581.5,575.5  A 22.0,22.0 0 0 1 1559.5 553.5  L 1559.5,446.5  A 22.0,22.0 0 0 1 1581.5 424.5  L 1800.0,424.5  L 2018.5,424.5  A 22.0,22.0 0 0 1 2040.5 446.5  L 2040.5,553.5  A 22.0,22.0 0 0 1 2018.5 575.5" fill="none" stroke="rgb(100, 0, 18)" stroke-width="0.2" /><path d="M 840.5,553.5  A 22.0,22.0 0 0 1 818.5 575.5  L 600.0,575.5  L 381.5,575.5  A 22.0,22.0 0 0 1 359.5 553.5  L 359.5,500.0  L 359.5,446.5  A 22.0,22.0 0 0 1 381.5 424.5  L 600.0,424.5  L 818.5,424.5  A 22.0,22.0 0 0 1 840.5 446.5  L 840.5,500.0  L 840.5,553.5" fill="none" stroke="rgb(100, 0, 18)" stroke-width="0.2" /><path d="M 249.25,899.5  A 4.0,4.0 0 0 0 241.25 899.5  L 221.75,899.5  A 4.0,4.0 0 0 0 213.75 899.5  L 213.75,950.5  A 4.0,4.0 0 0 0 221.75 950.5  L 241.25,950.5  A 4.0,4.0 0 0 0 249.25 950.5  L 249.25,899.5" fill="none" stroke="rgb(0, 100, 0)" stroke-width="0.2" /><path d="M 249.25,100.5  L 249.25,49.5  A 4.0,4.0 0 0 0 241.25 49.5  L 221.75,49.5  A 4.0,4.0 0 0 0 213.75 49.5  L 213.75,100.5  A 4.0,4.0 0 0 0 221.75 100.5  L 241.25,100.5  A 4.0,4.0 0 0 0 249.25 100.5" fill="none" stroke="rgb(0, 100, 0)" stroke-width="0.2" /><path d="M 2163.9,869.5  A 4.1,4.1 0 0 1 2172.1 869.5  A 4.1,4.1 0 0 1 2163.9 869.5" fill="none" stroke="rgb(0, 100, 0)" stroke-width="0.2" /><path d="M 2157.75,899.5  A 4.0,4.0 0 0 0 2149.75 899.5  L 2149.75,950.5  A 4.0,4.0 0 0 0 2157.75 950.5  L 2178.25,950.5  A 4.0,4.0 0 0 0 2186.25 950.5  L 2186.25,899.5  A 4.0,4.0 0 0 0 2178.25 899.5  L 2157.75,899.5" fill="none" stroke="rgb(0, 100, 0)" stroke-width="0.2" /><path d="M 2163.9,130.5  A 4.1,4.1 0 0 0 2172.1 130.5  A 4.1,4.1 0 0 0 2163.9 130.5" fill="none" stroke="rgb(0, 100, 0)" stroke-width="0.2" /><path d="M 2157.75,100.5  L 2178.25,100.5  A 4.0,4.0 0 0 0 2186.25 100.5  L 2186.25,49.5  A 4.0,4.0 0 0 0 2178.25 49.5  L 2157.75,49.5  A 4.0,4.0 0 0 0 2149.75 49.5  L 2149.75,100.5  A 4.0,4.0 0 0 0 2157.75 100.5" fill="none" stroke="rgb(0, 100, 0)" stroke-width="0.2" /></svg>