<?xml version="1.0" encoding="utf-8" ?>
<svg baseProfile="full" height="1179.0" version="1.1" viewBox="0 0 1173.0 1179.0" width="1173.0" xmlns="http://www.w3.org/2000/svg" xmlns:ev="http://www.w3.org/2001/xml-events" xmlns:xlink="http://www.w3.org/1999/xlink"><defs /><path d="M 0.0,1179.0  L 1173.0,1179.0  L 1173.0,0.0  L 0.0,0.0  L 0.0,1179.0" fill="none" stroke="rgb(100, 0, 18)" stroke-width="0.2" /><path d="M 12.5,1167.0  L 12.5,18.5  L 1160.5,18.5  L 1160.5,1167.0  L 12.5,1167.0" fill="none" stroke="rgb(0, 100, 12)" stroke-width="0.2" /><path d="M 385.75,774.917  L 241.69799999999998,774.917  A 4.1,4.1 0 0 1 235.89999999999998 780.715  L 235.89999999999998,787.6179999999999  A 4.1,4.1 0 0 0 241.69799999999998 793.417  L 385.75,793.417  L 385.75,903.952  A 4.1,4.1 0 0 0 391.548 909.75  L 398.452,909.75  A 4.1,4.1 0 0 0 404.25 903.952  L 404.25,793.417  L 464.502,793.417  A 4.1,4.1 0 0 0 470.3 787.6179999999999  L 470.3,780.715  A 4.1,4.1 0 0 0 464.502 774.917  L 404.25,774.917  L 404.25,703.548  A 4.1,4.1 0 0 0 398.452 697.75  L 391.548,697.75  A 4.1,4.1 0 0 0 385.75 703.548  L 385.75,774.917" fill="none" stroke="rgb(0, 100, 12)" stroke-width="0.2" /><path d="M 385.75,392.08299999999997  L 241.69799999999998,392.08299999999997  A 4.1,4.1 0 0 1 235.89999999999998 397.882  L 235.89999999999998,404.78499999999997  A 4.1,4.1 0 0 0 241.69799999999998 410.58299999999997  L 385.75,410.58299999999997  L 385.75,481.952  A 4.1,4.1 0 0 0 391.548 487.75  L 398.452,487.75  A 4.1,4.1 0 0 0 404.25 481.952  L 404.25,410.58299999999997  L 464.502,410.58299999999997  A 4.1,4.1 0 0 0 470.3 404.78499999999997  L 470.3,397.882  A 4.1,4.1 0 0 0 464.502 392.08299999999997  L 404.25,392.08299999999997  L 404.25,281.548  A 4.1,4.1 0 0 0 398.452 275.75  L 391.548,275.75  A 4.1,4.1 0 0 0 385.75 281.548  L 385.75,392.08299999999997" fill="none" stroke="rgb(0, 100, 12)" stroke-width="0.2" /><path d="M 768.75,774.917  L 708.498,774.917  A 4.1,4.1 0 0 0 702.7 780.715  L 702.7,787.6179999999999  A 4.1,4.1 0 0 0 708.498 793.417  L 768.75,793.417  L 768.75,903.952  A 4.1,4.1 0 0 0 774.548 909.75  L 781.452,909.75  A 4.1,4.1 0 0 0 787.25 903.952  L 787.25,793.417  L 931.302,793.417  A 4.1,4.1 0 0 0 937.1 787.6179999999999  L 937.1,780.715  A 4.1,4.1 0 0 0 931.302 774.917  L 787.25,774.917  L 787.25,703.548  A 4.1,4.1 0 0 0 781.452 697.75  L 774.548,697.75  A 4.1,4.1 0 0 0 768.75 703.548  L 768.75,774.917" fill="none" stroke="rgb(0, 100, 12)" stroke-width="0.2" /><path d="M 768.75,392.08299999999997  L 708.498,392.08299999999997  A 4.1,4.1 0 0 0 702.7 397.882  L 702.7,404.78499999999997  A 4.1,4.1 0 0 0 708.498 410.58299999999997  L 768.75,410.58299999999997  L 768.75,481.952  A 4.1,4.1 0 0 0 774.548 487.75  L 781.452,487.75  A 4.1,4.1 0 0 0 787.25 481.952  L 787.25,410.58299999999997  L 931.302,410.58299999999997  A 4.1,4.1 0 0 0 937.1 404.78499999999997  L 937.1,397.882  A 4.1,4.1 0 0 0 931.302 392.08299999999997  L 787.25,392.08299999999997  L 787.25,281.548  A 4.1,4.1 0 0 0 781.452 275.75  L 774.548,275.75  A 4.1,4.1 0 0 0 768.75 281.548  L 768.75,392.08299999999997" fill="none" stroke="rgb(0, 100, 12)" stroke-width="0.2" /></svg>