<?xml version="1.0" encoding="utf-8" ?>
<svg baseProfile="full" height="192.0" version="1.1" viewBox="0 0 1169.0 192.0" width="1169.0" xmlns="http://www.w3.org/2000/svg" xmlns:ev="http://www.w3.org/2001/xml-events" xmlns:xlink="http://www.w3.org/1999/xlink"><defs /><path d="M 383.75,192.0  L 383.75,106.798  A 4.1,4.1 0 0 1 389.548 101.0  L 396.452,101.0  A 4.1,4.1 0 0 1 402.25 106.798  L 402.25,192.0  L 766.75,192.0  L 766.75,106.798  A 4.1,4.1 0 0 1 772.548 101.0  L 779.452,101.0  A 4.1,4.1 0 0 1 785.25 106.798  L 785.25,192.0  L 1159.0,192.0  L 1159.0,140.132  A 4.1,4.1 0 0 1 1164.798 134.333  L 1165.536,134.333  L 1169.0,132.333  L 1169.0,69.667  L 1165.536,67.667  L 1164.798,67.667  A 4.1,4.1 0 0 1 1159.0 61.868  L 1159.0,10.0  L 906.798,10.0  A 4.1,4.1 0 0 1 901.0 4.201999999999998  L 901.0,3.4639999999999986  L 899.0,0.0  L 692.0,0.0  L 690.0,3.4639999999999986  L 690.0,4.201999999999998  A 4.1,4.1 0 0 1 684.202 10.0  L 484.798,10.0  A 4.1,4.1 0 0 1 479.0 4.201999999999998  L 479.0,3.4639999999999986  L 477.0,0.0  L 270.0,0.0  L 268.0,3.4639999999999986  L 268.0,4.201999999999998  A 4.1,4.1 0 0 1 262.202 10.0  L 10.0,10.0  L 10.0,61.868  A 4.1,4.1 0 0 1 4.201999999999998 67.667  L 3.4640000000000555,67.667  L 0.0,69.667  L 0.0,132.333  L 3.4640000000000555,134.333  L 4.201999999999998,134.333  A 4.1,4.1 0 0 1 10.0 140.132  L 10.0,192.0  L 383.75,192.0" fill="none" stroke="rgb(100, 0, 18)" stroke-width="0.2" /></svg>