<?xml version="1.0" encoding="utf-8" ?>
<svg baseProfile="full" height="400.0" version="1.1" viewBox="0 0 1179.0 400.0" width="1179.0" xmlns="http://www.w3.org/2000/svg" xmlns:ev="http://www.w3.org/2001/xml-events" xmlns:xlink="http://www.w3.org/1999/xlink"><defs /><path d="M 1179.0,0.0  L 0.0,0.0  L 0.0,400.0  L 1179.0,400.0  L 1179.0,0.0" fill="none" stroke="rgb(100, 0, 18)" stroke-width="0.2" /><path d="M 1179.0,147.0  L 1175.2,147.0  A 4.1,4.1 0 0 0 1167.0 147.0  L 1167.0,247.0  A 4.1,4.1 0 0 0 1175.2 247.0  L 1179.0,247.0  L 1179.0,147.0" fill="none" stroke="rgb(0, 100, 0)" stroke-width="0.2" /><path d="M 783.117,126.833  A 4.1,4.1 0 0 0 774.917 126.833  L 774.917,255.167  A 4.1,4.1 0 0 0 783.117 255.167  L 785.217,255.167  A 4.1,4.1 0 0 0 793.417 255.167  L 793.417,126.833  A 4.1,4.1 0 0 0 785.217 126.833  L 783.117,126.833" fill="none" stroke="rgb(0, 100, 0)" stroke-width="0.2" /><path d="M 410.58299999999997,255.167  L 410.58299999999997,126.833  A 4.1,4.1 0 0 0 402.38300000000004 126.833  L 400.283,126.833  A 4.1,4.1 0 0 0 392.08299999999997 126.833  L 392.08299999999997,255.167  A 4.1,4.1 0 0 0 400.283 255.167  L 402.38300000000004,255.167  A 4.1,4.1 0 0 0 410.58299999999997 255.167" fill="none" stroke="rgb(0, 100, 0)" stroke-width="0.2" /><path d="M 1179.0,394.0  L 675.143,394.0  L 675.143,387.798  A 4.1,4.1 0 0 0 669.345 382.0  L 509.655,382.0  A 4.1,4.1 0 0 0 503.85699999999997 387.798  L 503.85699999999997,394.0  L 18.5,394.0  L 18.5,0.0  L 1179.0,394.0" fill="none" stroke="rgb(0, 100, 0)" stroke-width="0.2" /></svg>