<?xml version="1.0" encoding="utf-8" ?>
<svg baseProfile="full" height="1169.0" version="1.1" viewBox="0 0 392.0 1169.0" width="392.0" xmlns="http://www.w3.org/2000/svg" xmlns:ev="http://www.w3.org/2001/xml-events" xmlns:xlink="http://www.w3.org/1999/xlink"><defs /><path d="M 264.66700000000003,1164.798  A 4.1,4.1 0 0 1 270.46500000000003 1159.0  L 392.0,1159.0  L 392.0,10.0  L 270.46500000000003,10.0  A 4.1,4.1 0 0 1 264.66700000000003 4.201999999999998  L 264.66700000000003,3.4640000000000555  L 262.66700000000003,0.0  L 139.333,0.0  L 137.333,3.4640000000000555  L 137.333,4.201999999999998  A 4.1,4.1 0 0 1 131.535 10.0  L 10.0,10.0  L 10.0,228.60199999999998  A 4.1,4.1 0 0 1 4.201999999999998 234.39999999999998  L 3.4639999999999986,234.39999999999998  L 0.0,236.39999999999998  L 0.0,383.75  L 102.0,383.75  A 4.1,4.1 0 0 1 102.0 391.95  L 102.0,394.05  A 4.1,4.1 0 0 1 102.0 402.25  L 0.0,402.25  L 0.0,465.8  L 3.4639999999999986,467.8  L 4.201999999999998,467.8  A 4.1,4.1 0 0 1 10.0 473.598  L 10.0,695.402  A 4.1,4.1 0 0 1 4.201999999999998 701.2  L 3.4639999999999986,701.2  L 0.0,703.2  L 0.0,766.75  L 102.0,766.75  A 4.1,4.1 0 0 1 102.0 774.95  L 102.0,777.05  A 4.1,4.1 0 0 1 102.0 785.25  L 0.0,785.25  L 0.0,932.6  L 3.4639999999999986,934.6  L 4.201999999999998,934.6  A 4.1,4.1 0 0 1 10.0 940.398  L 10.0,1159.0  L 131.535,1159.0  A 4.1,4.1 0 0 1 137.333 1164.798  L 137.333,1165.536  L 139.333,1169.0  L 262.66700000000003,1169.0  L 264.66700000000003,1165.536  L 264.66700000000003,1164.798" fill="none" stroke="rgb(100, 0, 18)" stroke-width="0.2" /></svg>