<?xml version="1.0" encoding="utf-8" ?>
<svg baseProfile="full" height="400.0" version="1.1" viewBox="0 0 1179.0 400.0" width="1179.0" xmlns="http://www.w3.org/2000/svg" xmlns:ev="http://www.w3.org/2001/xml-events" xmlns:xlink="http://www.w3.org/1999/xlink"><defs /><path d="M 1179.0,400.0  L 1179.0,0.0  L 0.0,0.0  L 0.0,400.0  L 1179.0,400.0" fill="none" stroke="rgb(100, 0, 18)" stroke-width="0.2" /><path d="M 18.5,400.0  L 18.5,6.0  L 503.85699999999997,6.0  L 503.85699999999997,12.201999999999998  A 4.1,4.1 0 0 0 509.655 18.0  L 669.345,18.0  A 4.1,4.1 0 0 0 675.143 12.201999999999998  L 675.143,6.0  L 1179.0,6.0  L 18.5,400.0" fill="none" stroke="rgb(0, 100, 0)" stroke-width="0.2" /><path d="M 783.117,273.16700000000003  L 785.217,273.16700000000003  A 4.1,4.1 0 0 1 793.417 273.16700000000003  L 793.417,144.833  A 4.1,4.1 0 0 0 785.217 144.833  L 783.117,144.833  A 4.1,4.1 0 0 0 774.917 144.833  L 774.917,273.16700000000003  A 4.1,4.1 0 0 0 783.117 273.16700000000003" fill="none" stroke="rgb(0, 100, 0)" stroke-width="0.2" /><path d="M 410.58299999999997,144.833  A 4.1,4.1 0 0 0 402.38300000000004 144.833  L 400.283,144.833  A 4.1,4.1 0 0 0 392.08299999999997 144.833  L 392.08299999999997,273.16700000000003  A 4.1,4.1 0 0 0 400.283 273.16700000000003  L 402.38300000000004,273.16700000000003  A 4.1,4.1 0 0 0 410.58299999999997 273.16700000000003  L 410.58299999999997,144.833" fill="none" stroke="rgb(0, 100, 0)" stroke-width="0.2" /><path d="M 1179.0,153.0  L 1175.2,153.0  A 4.1,4.1 0 0 0 1167.0 153.0  L 1167.0,253.0  A 4.1,4.1 0 0 0 1175.2 253.0  L 1179.0,253.0  L 1179.0,153.0" fill="none" stroke="rgb(0, 100, 0)" stroke-width="0.2" /></svg>