<?xml version="1.0" encoding="utf-8" ?>
<svg baseProfile="full" height="1172.0" version="1.1" viewBox="0 0 393.5 1172.0" width="393.5" xmlns="http://www.w3.org/2000/svg" xmlns:ev="http://www.w3.org/2001/xml-events" xmlns:xlink="http://www.w3.org/1999/xlink"><defs /><path d="M 260.16700000000003,1172.0  L 393.5,1172.0  L 393.5,0.0  L 260.16700000000003,0.0  L 260.16700000000003,3.7999999999999545  A 4.1,4.1 0 0 1 260.16700000000003 12.0  L 126.833,12.0  A 4.1,4.1 0 0 1 126.833 3.7999999999999545  L 126.833,0.0  L 0.0,0.0  L 0.0,500.35699999999997  L 3.8000000000000114,500.35699999999997  A 4.1,4.1 0 0 1 12.0 500.35699999999997  L 12.0,671.643  A 4.1,4.1 0 0 1 3.8000000000000114 671.643  L 0.0,671.643  L 0.0,1172.0  L 126.833,1172.0  L 126.833,1168.2  A 4.1,4.1 0 0 1 126.833 1160.0  L 260.16700000000003,1160.0  A 4.1,4.1 0 0 1 260.16700000000003 1168.2  L 260.16700000000003,1172.0" fill="none" stroke="rgb(100, 0, 18)" stroke-width="0.2" /><path d="M 136.833,786.75  L 69.167,786.75  A 4.1,4.1 0 0 1 69.167 778.55  L 69.167,776.45  A 4.1,4.1 0 0 1 69.167 768.25  L 136.833,768.25  A 4.1,4.1 0 0 1 136.833 776.45  L 136.833,778.55  A 4.1,4.1 0 0 1 136.833 786.75" fill="none" stroke="rgb(100, 0, 18)" stroke-width="0.2" /><path d="M 136.833,385.25  A 4.1,4.1 0 0 1 136.833 393.45  L 136.833,395.55  A 4.1,4.1 0 0 1 136.833 403.75  L 69.167,403.75  A 4.1,4.1 0 0 1 69.167 395.55  L 69.167,393.45  A 4.1,4.1 0 0 1 69.167 385.25  L 136.833,385.25" fill="none" stroke="rgb(100, 0, 18)" stroke-width="0.2" /><path d="M 75.0,1146.0  L 75.0,1091.0  L 20.0,1091.0  L 20.0,1146.0  L 75.0,1146.0" fill="none" stroke="rgb(0, 100, 0)" stroke-width="0.2" /><path d="M 367.5,1091.0  L 312.5,1091.0  L 312.5,1146.0  L 367.5,1146.0  L 367.5,1091.0" fill="none" stroke="rgb(0, 100, 0)" stroke-width="0.2" /><path d="M 75.0,26.0  L 20.0,26.0  L 20.0,81.0  L 75.0,81.0  L 75.0,26.0" fill="none" stroke="rgb(0, 100, 0)" stroke-width="0.2" /><path d="M 367.5,81.0  L 367.5,26.0  L 312.5,26.0  L 312.5,81.0  L 367.5,81.0" fill="none" stroke="rgb(0, 100, 0)" stroke-width="0.2" /></svg>