<?xml version="1.0" encoding="utf-8" ?>
<svg baseProfile="full" height="1185.0" version="1.1" viewBox="0 0 400.0 1185.0" width="400.0" xmlns="http://www.w3.org/2000/svg" xmlns:ev="http://www.w3.org/2001/xml-events" xmlns:xlink="http://www.w3.org/1999/xlink"><defs /><path d="M 0.0,1185.0  L 400.0,1185.0  L 400.0,0.0  L 0.0,0.0  L 0.0,1185.0" fill="none" stroke="rgb(100, 0, 18)" stroke-width="0.2" /><path d="M 400.0,1167.0  L 252.0,1167.0  A 4.1,4.1 0 0 0 252.0 1175.2  L 252.0,1178.0  L 154.0,1178.0  L 154.0,1175.2  A 4.1,4.1 0 0 0 154.0 1167.0  L 6.0,1167.0  L 6.0,677.143  L 9.800000000000011,677.143  A 4.1,4.1 0 0 0 18.0 677.143  L 18.0,507.85699999999997  A 4.1,4.1 0 0 0 9.800000000000011 507.85699999999997  L 6.0,507.85699999999997  L 6.0,18.0  L 154.0,18.0  A 4.1,4.1 0 0 0 154.0 9.799999999999955  L 154.0,7.0  L 252.0,7.0  L 252.0,9.799999999999955  A 4.1,4.1 0 0 0 252.0 18.0  L 400.0,18.0  L 400.0,1167.0" fill="none" stroke="rgb(0, 100, 0)" stroke-width="0.2" /><path d="M 142.333,793.0  A 4.1,4.1 0 0 0 142.333 784.8  L 142.333,783.2  A 4.1,4.1 0 0 0 142.333 775.0  L 75.667,775.0  A 4.1,4.1 0 0 0 75.667 783.2  L 75.667,784.8  A 4.1,4.1 0 0 0 75.667 793.0  L 142.333,793.0" fill="none" stroke="rgb(0, 100, 0)" stroke-width="0.2" /><path d="M 142.333,392.0  L 75.667,392.0  A 4.1,4.1 0 0 0 75.667 400.2  L 75.667,401.8  A 4.1,4.1 0 0 0 75.667 410.0  L 142.333,410.0  A 4.1,4.1 0 0 0 142.333 401.8  L 142.333,400.2  A 4.1,4.1 0 0 0 142.333 392.0" fill="none" stroke="rgb(0, 100, 0)" stroke-width="0.2" /></svg>