<?xml version="1.0" encoding="utf-8" ?>
<svg baseProfile="full" height="100.0" version="1.1" viewBox="0 0 988.0 100.0" width="988.0" xmlns="http://www.w3.org/2000/svg" xmlns:ev="http://www.w3.org/2001/xml-events" xmlns:xlink="http://www.w3.org/1999/xlink"><defs /><path d="M 494.0,100.0  L 614.5,100.0  L 614.5,90.2  A 4.1,4.1 0 0 1 614.5 82.0  L 735.0,82.0  A 4.1,4.1 0 0 1 735.0 90.2  L 735.0,100.0  L 855.5,100.0  L 855.5,90.2  A 4.1,4.1 0 0 1 855.5 82.0  L 976.0,82.0  L 988.0,82.0  L 988.0,25.0  L 981.798,25.0  A 4.1,4.1 0 0 1 976.0 19.202  L 976.0,0.0  L 12.0,0.0  L 12.0,19.202  A 4.1,4.1 0 0 1 6.201999999999998 25.0  L 0.0,25.0  L 0.0,100.0  L 132.5,100.0  L 132.5,90.2  A 4.1,4.1 0 0 1 132.5 82.0  L 253.0,82.0  A 4.1,4.1 0 0 1 253.0 90.2  L 253.0,100.0  L 373.5,100.0  L 373.5,90.2  A 4.1,4.1 0 0 1 373.5 82.0  L 494.0,82.0  A 4.1,4.1 0 0 1 494.0 90.2  L 494.0,100.0" fill="none" stroke="rgb(100, 0, 18)" stroke-width="0.2" /></svg>