<?xml version="1.0" encoding="utf-8" ?>
<svg baseProfile="full" height="620.0" version="1.1" viewBox="0 0 907.0 620.0" width="907.0" xmlns="http://www.w3.org/2000/svg" xmlns:ev="http://www.w3.org/2001/xml-events" xmlns:xlink="http://www.w3.org/1999/xlink"><defs /><path d="M 8.800000000000011,530.0  A 4.1,4.1 0 0 1 17.0 530.0  L 17.0,570.0  A 4.1,4.1 0 0 1 8.800000000000011 570.0  L 0.0,570.0  L 0.0,610.0  L 8.800000000000011,610.0  A 4.1,4.1 0 0 1 17.0 610.0  L 17.0,620.0  L 46.274,620.0  A 15.0,15.0 0 0 0 61.214999999999975 606.328  L 78.09899999999999,416.403  A 25.0,25.0 0 0 1 101.447 393.665  L 892.932,344.376  A 15.0,15.0 0 0 0 907.0 329.405  L 907.0,310.0  L 907.0,290.595  A 15.0,15.0 0 0 0 892.932 275.624  L 101.447,226.33499999999998  A 25.0,25.0 0 0 1 78.09899999999999 203.59699999999998  L 61.214999999999975,13.672000000000025  A 15.0,15.0 0 0 0 46.274 0.0  L 17.0,0.0  L 17.0,10.0  A 4.1,4.1 0 0 1 8.800000000000011 10.0  L 0.0,10.0  L 0.0,50.0  L 8.800000000000011,50.0  A 4.1,4.1 0 0 1 17.0 50.0  L 17.0,90.0  A 4.1,4.1 0 0 1 8.800000000000011 90.0  L 0.0,90.0  L 0.0,130.0  L 8.800000000000011,130.0  A 4.1,4.1 0 0 1 17.0 130.0  L 17.0,170.0  A 4.1,4.1 0 0 1 8.800000000000011 170.0  L 0.0,170.0  L 0.0,210.0  L 8.800000000000011,210.0  A 4.1,4.1 0 0 1 17.0 210.0  L 17.0,250.0  A 4.1,4.1 0 0 1 8.800000000000011 250.0  L 0.0,250.0  L 0.0,290.0  L 8.800000000000011,290.0  A 4.1,4.1 0 0 1 17.0 290.0  L 17.0,310.0  L 17.0,330.0  A 4.1,4.1 0 0 1 8.800000000000011 330.0  L 0.0,330.0  L 0.0,370.0  L 8.800000000000011,370.0  A 4.1,4.1 0 0 1 17.0 370.0  L 17.0,410.0  A 4.1,4.1 0 0 1 8.800000000000011 410.0  L 0.0,410.0  L 0.0,450.0  L 8.800000000000011,450.0  A 4.1,4.1 0 0 1 17.0 450.0  L 17.0,490.0  A 4.1,4.1 0 0 1 8.800000000000011 490.0  L 0.0,490.0  L 0.0,530.0  L 8.800000000000011,530.0" fill="none" stroke="rgb(100, 0, 18)" stroke-width="0.2" /><path d="M 907.0,301.0  L 162.798,301.0  A 4.1,4.1 0 0 0 157.0 306.798  L 157.0,313.202  A 4.1,4.1 0 0 0 162.798 319.0  L 907.0,319.0  L 907.0,301.0" fill="none" stroke="rgb(0, 100, 0)" stroke-width="0.2" /><path d="M 102.45600000000002,310.0  L 142.76100000000002,269.695  A 4.1,4.1 0 0 1 136.96300000000002 263.897  L 135.83100000000002,262.765  A 4.1,4.1 0 0 0 130.03300000000002 256.967  L 81.10000000000002,305.9  A 4.1,4.1 0 0 0 81.10000000000002 314.1  L 130.03300000000002,363.033  A 4.1,4.1 0 0 0 135.83100000000002 357.235  L 136.96300000000002,356.103  A 4.1,4.1 0 0 0 142.76100000000002 350.305  L 102.45600000000002,310.0" fill="none" stroke="rgb(0, 100, 0)" stroke-width="0.2" /></svg>