<?xml version="1.0" encoding="utf-8" ?>
<svg baseProfile="full" height="170.0" version="1.1" viewBox="0 0 660.0 170.0" width="660.0" xmlns="http://www.w3.org/2000/svg" xmlns:ev="http://www.w3.org/2001/xml-events" xmlns:xlink="http://www.w3.org/1999/xlink"><defs /><path d="M 0.0,100.0  L 0.0,135.0  A 15.0,15.0 0 0 0 15.0 150.0  L 330.0,150.0  L 645.0,150.0  A 15.0,15.0 0 0 0 660.0 135.0  L 660.0,100.0  A 30.0,30.0 0 0 0 630.0 70.0  L 550.5260000000001,70.0  A 100.0,100.0 0 0 0 511.134 78.08500000000001  L 478.866,91.91499999999999  A 100.0,100.0 0 0 1 439.474 100.0  L 330.0,100.0  L 220.526,100.0  A 100.0,100.0 0 0 1 181.134 91.91499999999999  L 148.866,78.08500000000001  A 100.0,100.0 0 0 0 109.47399999999999 70.0  L 30.0,70.0  A 30.0,30.0 0 0 0 0.0 100.0" fill="none" stroke="rgb(100, 0, 18)" stroke-width="0.2" /><path d="M 230.0,127.0  A 4.1,4.1 0 0 1 230.0 135.2  L 230.0,136.8  A 4.1,4.1 0 0 1 230.0 145.0  L 190.0,145.0  A 4.1,4.1 0 0 1 190.0 136.8  L 190.0,135.2  A 4.1,4.1 0 0 1 190.0 127.0  L 230.0,127.0" fill="none" stroke="rgb(100, 0, 18)" stroke-width="0.2" /><path d="M 150.0,127.0  A 4.1,4.1 0 0 1 150.0 135.2  L 150.0,136.8  A 4.1,4.1 0 0 1 150.0 145.0  L 110.0,145.0  A 4.1,4.1 0 0 1 110.0 136.8  L 110.0,135.2  A 4.1,4.1 0 0 1 110.0 127.0  L 150.0,127.0" fill="none" stroke="rgb(100, 0, 18)" stroke-width="0.2" /><path d="M 630.0,139.202  A 4.1,4.1 0 0 1 624.202 145.0  L 590.0,145.0  A 4.1,4.1 0 0 1 590.0 136.8  L 590.0,135.2  A 4.1,4.1 0 0 1 590.0 127.0  L 624.202,127.0  A 4.1,4.1 0 0 1 630.0 132.798  L 630.0,139.202" fill="none" stroke="rgb(100, 0, 18)" stroke-width="0.2" /><path d="M 30.0,139.202  L 30.0,132.798  A 4.1,4.1 0 0 0 35.798 127.0  L 70.0,127.0  A 4.1,4.1 0 0 1 70.0 135.2  L 70.0,136.8  A 4.1,4.1 0 0 1 70.0 145.0  L 35.798,145.0  A 4.1,4.1 0 0 1 30.0 139.202" fill="none" stroke="rgb(100, 0, 18)" stroke-width="0.2" /><path d="M 310.0,127.0  A 4.1,4.1 0 0 1 310.0 135.2  L 310.0,136.8  A 4.1,4.1 0 0 1 310.0 145.0  L 270.0,145.0  A 4.1,4.1 0 0 1 270.0 136.8  L 270.0,135.2  A 4.1,4.1 0 0 1 270.0 127.0  L 310.0,127.0" fill="none" stroke="rgb(100, 0, 18)" stroke-width="0.2" /><path d="M 390.0,127.0  A 4.1,4.1 0 0 1 390.0 135.2  L 390.0,136.8  A 4.1,4.1 0 0 1 390.0 145.0  L 350.0,145.0  A 4.1,4.1 0 0 1 350.0 136.8  L 350.0,135.2  A 4.1,4.1 0 0 1 350.0 127.0  L 390.0,127.0" fill="none" stroke="rgb(100, 0, 18)" stroke-width="0.2" /><path d="M 470.0,127.0  A 4.1,4.1 0 0 1 470.0 135.2  L 470.0,136.8  A 4.1,4.1 0 0 1 470.0 145.0  L 430.0,145.0  A 4.1,4.1 0 0 1 430.0 136.8  L 430.0,135.2  A 4.1,4.1 0 0 1 430.0 127.0  L 470.0,127.0" fill="none" stroke="rgb(100, 0, 18)" stroke-width="0.2" /><path d="M 550.0,127.0  A 4.1,4.1 0 0 1 550.0 135.2  L 550.0,136.8  A 4.1,4.1 0 0 1 550.0 145.0  L 510.0,145.0  A 4.1,4.1 0 0 1 510.0 136.8  L 510.0,135.2  A 4.1,4.1 0 0 1 510.0 127.0  L 550.0,127.0" fill="none" stroke="rgb(100, 0, 18)" stroke-width="0.2" /><path d="M 630.0,127.0  L 630.0,89.798  A 4.1,4.1 0 0 0 624.202 84.0  L 583.798,84.0  A 4.1,4.1 0 0 0 578.0 89.798  L 578.0,130.202  A 4.1,4.1 0 0 0 583.798 136.0  L 590.0,136.0  L 630.0,127.0" fill="none" stroke="rgb(0, 100, 0)" stroke-width="0.2" /><path d="M 29.125,131.5  A 4.1,4.1 0 0 0 30.0 136.0  L 29.125,131.5" fill="none" stroke="rgb(0, 100, 0)" stroke-width="0.2" /><path d="M 70.0,136.0  L 76.202,136.0  A 4.1,4.1 0 0 0 82.0 130.202  L 82.0,89.798  A 4.1,4.1 0 0 0 76.202 84.0  L 35.798,84.0  A 4.1,4.1 0 0 0 30.0 89.798  L 30.0,127.0  L 70.0,136.0" fill="none" stroke="rgb(0, 100, 0)" stroke-width="0.2" /></svg>