<?xml version="1.0" encoding="utf-8" ?>
<svg baseProfile="full" height="135.0" version="1.1" viewBox="0 0 2188.9 135.0" width="2188.9" xmlns="http://www.w3.org/2000/svg" xmlns:ev="http://www.w3.org/2001/xml-events" xmlns:xlink="http://www.w3.org/1999/xlink"><defs /><path d="M 1295.9,0.0  L 1295.9,18.0  A 4.1,4.1 0 0 1 1287.7 18.0  L 1204.1000000000001,18.0  A 4.1,4.1 0 0 1 1195.9 18.0  L 1195.9,0.0  L 1095.9,0.0  L 1095.9,18.0  A 4.1,4.1 0 0 1 1087.7 18.0  L 1004.1000000000001,18.0  A 4.1,4.1 0 0 1 995.9000000000001 18.0  L 995.9000000000001,0.0  L 895.9000000000001,0.0  L 895.9000000000001,18.0  A 4.1,4.1 0 0 1 887.7 18.0  L 804.1000000000001,18.0  A 4.1,4.1 0 0 1 795.9000000000001 18.0  L 795.9000000000001,0.0  L 695.9000000000001,0.0  L 695.9000000000001,18.0  A 4.1,4.1 0 0 1 687.7 18.0  L 604.1000000000001,18.0  A 4.1,4.1 0 0 1 595.9000000000001 18.0  L 595.9000000000001,0.0  L 495.9000000000001,0.0  L 495.9000000000001,18.0  A 4.1,4.1 0 0 1 487.70000000000005 18.0  L 404.10000000000014,18.0  A 4.1,4.1 0 0 1 395.9000000000001 18.0  L 395.9000000000001,0.0  L 295.9000000000001,0.0  L 295.9000000000001,18.0  A 4.1,4.1 0 0 1 287.70000000000005 18.0  L 204.10000000000014,18.0  A 4.1,4.1 0 0 1 195.9000000000001 18.0  L 195.9000000000001,0.0  L 95.90000000000009,0.0  L 95.90000000000009,18.0  A 4.1,4.1 0 0 1 87.70000000000005 18.0  L 4.100000000000136,18.0  A 4.1,4.1 0 0 1 2.900000000000091 20.898000000000003  L 2.900000000000091,100.0  L 30.90000000000009,100.0  A 4.0,4.0 0 0 1 30.90000000000009 108.0  L 30.90000000000009,135.0  L 1095.9,135.0  L 2160.9,135.0  L 2160.9,108.0  A 4.0,4.0 0 0 1 2160.9 100.0  L 2188.9,100.0  L 2188.9,0.0  L 2095.9,0.0  L 2095.9,18.0  A 4.1,4.1 0 0 1 2087.7 18.0  L 2004.1000000000001,18.0  A 4.1,4.1 0 0 1 1995.9 18.0  L 1995.9,0.0  L 1895.9,0.0  L 1895.9,18.0  A 4.1,4.1 0 0 1 1887.7 18.0  L 1804.1000000000001,18.0  A 4.1,4.1 0 0 1 1795.9 18.0  L 1795.9,0.0  L 1695.9,0.0  L 1695.9,18.0  A 4.1,4.1 0 0 1 1687.7 18.0  L 1604.1000000000001,18.0  A 4.1,4.1 0 0 1 1595.9 18.0  L 1595.9,0.0  L 1495.9,0.0  L 1495.9,18.0  A 4.1,4.1 0 0 1 1487.7 18.0  L 1404.1000000000001,18.0  A 4.1,4.1 0 0 1 1395.9 18.0  L 1395.9,0.0  L 1295.9,0.0" fill="none" stroke="rgb(100, 0, 18)" stroke-width="0.2" /></svg>