<?xml version="1.0" encoding="utf-8" ?>
<svg baseProfile="full" height="1200.0" version="1.1" viewBox="0 0 2400.0 1200.0" width="2400.0" xmlns="http://www.w3.org/2000/svg" xmlns:ev="http://www.w3.org/2001/xml-events" xmlns:xlink="http://www.w3.org/1999/xlink"><defs /><path d="M 2400.0,0.0  L 1200.0,0.0  L 0.0,0.0  L 0.0,1200.0  L 1200.0,1200.0  L 2400.0,1200.0  L 2400.0,0.0" fill="none" stroke="rgb(100, 0, 18)" stroke-width="0.2" /><path d="M 818.5,524.5  A 22.0,22.0 0 0 1 840.5 546.5  L 840.5,653.5  A 22.0,22.0 0 0 1 818.5 675.5  L 381.5,675.5  A 22.0,22.0 0 0 1 359.5 653.5  L 359.5,546.5  A 22.0,22.0 0 0 1 381.5 524.5  L 818.5,524.5" fill="none" stroke="rgb(100, 0, 18)" stroke-width="0.2" /><path d="M 2018.5,524.5  A 22.0,22.0 0 0 1 2040.5 546.5  L 2040.5,653.5  A 22.0,22.0 0 0 1 2018.5 675.5  L 1581.5,675.5  A 22.0,22.0 0 0 1 1559.5 653.5  L 1559.5,546.5  A 22.0,22.0 0 0 1 1581.5 524.5  L 2018.5,524.5" fill="none" stroke="rgb(100, 0, 18)" stroke-width="0.2" /><path d="M 135.25,160.5  A 4.1,4.1 0 0 0 135.25 152.3  L 135.25,117.69999999999999  A 4.1,4.1 0 0 0 135.25 109.5  L 99.75,109.5  A 4.1,4.1 0 0 0 99.75 117.69999999999999  L 99.75,152.3  A 4.1,4.1 0 0 0 99.75 160.5  L 135.25,160.5" fill="none" stroke="rgb(0, 100, 0)" stroke-width="0.2" /><path d="M 99.75,1047.7  L 99.75,1082.3  A 4.1,4.1 0 0 0 99.75 1090.5  L 135.25,1090.5  A 4.1,4.1 0 0 0 135.25 1082.3  L 135.25,1047.7  A 4.1,4.1 0 0 0 135.25 1039.5  L 99.75,1039.5  A 4.1,4.1 0 0 0 99.75 1047.7" fill="none" stroke="rgb(0, 100, 0)" stroke-width="0.2" /><path d="M 2283.25,1090.5  A 4.1,4.1 0 0 0 2283.25 1082.3  L 2283.25,1047.7  A 4.1,4.1 0 0 0 2283.25 1039.5  L 2264.75,1039.5  A 4.1,4.1 0 0 0 2264.75 1047.7  L 2264.75,1082.3  A 4.1,4.1 0 0 0 2264.75 1090.5  L 2283.25,1090.5" fill="none" stroke="rgb(0, 100, 0)" stroke-width="0.2" /><path d="M 2264.75,117.69999999999999  L 2264.75,152.3  A 4.1,4.1 0 0 0 2264.75 160.5  L 2283.25,160.5  A 4.1,4.1 0 0 0 2283.25 152.3  L 2283.25,117.69999999999999  A 4.1,4.1 0 0 0 2283.25 109.5  L 2264.75,109.5  A 4.1,4.1 0 0 0 2264.75 117.69999999999999" fill="none" stroke="rgb(0, 100, 0)" stroke-width="0.2" /></svg>