<?xml version="1.0" encoding="utf-8" ?>
<svg baseProfile="full" height="150.0" version="1.1" viewBox="0 0 480.0 150.0" width="480.0" xmlns="http://www.w3.org/2000/svg" xmlns:ev="http://www.w3.org/2001/xml-events" xmlns:xlink="http://www.w3.org/1999/xlink"><defs /><path d="M 480.0,30.0  L 480.0,22.0  A 22.0,22.0 0 0 0 458.0 0.0  L 240.0,0.0  L 22.0,0.0  A 22.0,22.0 0 0 0 0.0 22.0  L 0.0,30.0  L 15.900000000000006,30.0  A 4.1,4.1 0 0 1 20.0 34.1  L 20.0,115.9  A 4.1,4.1 0 0 1 15.900000000000006 120.0  L 0.0,120.0  L 0.0,128.0  A 22.0,22.0 0 0 0 22.0 150.0  L 240.0,150.0  L 458.0,150.0  A 22.0,22.0 0 0 0 480.0 128.0  L 480.0,120.0  L 464.1,120.0  A 4.1,4.1 0 0 1 460.0 115.9  L 460.0,34.1  A 4.1,4.1 0 0 1 464.1 30.0  L 480.0,30.0" fill="none" stroke="rgb(100, 0, 18)" stroke-width="0.2" /><path d="M 220.0,24.75  A 6.0,6.0 0 0 1 220.0 12.75  L 260.0,12.75  A 6.0,6.0 0 0 1 260.0 24.75  L 220.0,24.75" fill="none" stroke="rgb(0, 100, 18)" stroke-width="0.2" /><path d="M 260.0,137.25  L 220.0,137.25  A 6.0,6.0 0 0 0 220.0 125.25  L 260.0,125.25  A 6.0,6.0 0 0 1 260.0 137.25" fill="none" stroke="rgb(0, 100, 18)" stroke-width="0.2" /><path d="M 100.0,12.75  L 140.0,12.75  A 6.0,6.0 0 0 1 140.0 24.75  L 100.0,24.75  A 6.0,6.0 0 0 1 100.0 12.75" fill="none" stroke="rgb(0, 100, 18)" stroke-width="0.2" /><path d="M 100.0,137.25  A 6.0,6.0 0 0 1 100.0 125.25  L 140.0,125.25  A 6.0,6.0 0 0 1 140.0 137.25  L 100.0,137.25" fill="none" stroke="rgb(0, 100, 18)" stroke-width="0.2" /><path d="M 340.0,12.75  L 380.0,12.75  A 6.0,6.0 0 0 1 380.0 24.75  L 340.0,24.75  A 6.0,6.0 0 0 1 340.0 12.75" fill="none" stroke="rgb(0, 100, 18)" stroke-width="0.2" /><path d="M 340.0,137.25  A 6.0,6.0 0 0 1 340.0 125.25  L 380.0,125.25  A 6.0,6.0 0 0 1 380.0 137.25  L 340.0,137.25" fill="none" stroke="rgb(0, 100, 18)" stroke-width="0.2" /><path d="M 420.0,137.25  A 6.0,6.0 0 0 0 420.0 125.25  L 60.0,125.25  A 6.0,6.0 0 0 0 60.0 137.25  L 420.0,137.25" fill="none" stroke="rgb(0, 100, 0)" stroke-width="0.2" /><path d="M 60.0,24.75  L 420.0,24.75  A 6.0,6.0 0 0 0 420.0 12.75  L 60.0,12.75  A 6.0,6.0 0 0 0 60.0 24.75" fill="none" stroke="rgb(0, 100, 0)" stroke-width="0.2" /><path d="M 420.0,112.5  A 6.0,6.0 0 0 0 426.0 106.5  L 426.0,43.5  A 6.0,6.0 0 0 0 420.0 37.5  L 60.0,37.5  A 6.0,6.0 0 0 0 54.0 43.5  L 54.0,106.5  A 6.0,6.0 0 0 0 60.0 112.5  L 420.0,112.5" fill="none" stroke="rgb(0, 100, 0)" stroke-width="0.2" /></svg>